<?xml version="1.0" encoding="UTF-8"?>
<svg id="svg2" xmlns="http://www.w3.org/2000/svg" xmlns:svg="http://www.w3.org/2000/svg" xmlns:sodipodi="http://sodipodi.sourceforge.net/DTD/sodipodi-0.dtd" xmlns:rdf="http://www.w3.org/1999/02/22-rdf-syntax-ns#" xmlns:inkscape="http://www.inkscape.org/namespaces/inkscape" xmlns:dc="http://purl.org/dc/elements/1.1/" xmlns:cc="http://creativecommons.org/ns#" version="1.1" viewBox="0 0 816.4 551.1">
  <!-- Generator: Adobe Illustrator 29.3.1, SVG Export Plug-In . SVG Version: 2.1.0 Build 151)  -->
  <defs>
    <style>
      .st0 {
        fill: #ff9c6a;
      }

      .st1 {
        fill: #ffc19d;
      }

      .st2 {
        fill: #fff;
      }

      .st3 {
        fill: #005c6e;
      }

      .st4 {
        fill: #004654;
      }

      .st5 {
        fill: #7c4236;
      }

      .st6 {
        opacity: .6;
      }

      .st7 {
        opacity: .3;
      }

      .st8 {
        fill: #e1e1e1;
      }

      .st9 {
        fill: #f5f5f5;
      }

      .st10 {
        fill: #00c1d0;
      }

      .st11 {
        fill: #a8a8a8;
        fill-rule: evenodd;
      }

      .st12 {
        fill: #d00000;
      }

      .st13 {
        fill: #c17560;
      }
    </style>
  </defs>
  <sodipodi:namedview id="base" bordercolor="#666666" borderopacity="1.0" gridtolerance="10.0" guidetolerance="10.0" inkscape:current-layer="svg2" inkscape:cx="510.61214" inkscape:cy="318.89765" inkscape:document-units="mm" inkscape:pagecheckerboard="0" inkscape:pageopacity="0.0" inkscape:pageshadow="2" inkscape:window-height="1377" inkscape:window-maximized="1" inkscape:window-width="2560" inkscape:window-x="-8" inkscape:window-y="-8" inkscape:zoom="0.79806171" objecttolerance="10.0" pagecolor="#ffffff" showgrid="false"/>
  <path id="uf_35" class="st11" d="M725.4,366h0c0,0,0-.2,0-.2h0s0,.1,0,.1h0s0,0,0,0h0c0,0,0,.1,0,.1h0s0,0,0,0h0ZM734.1,353.5h-.4c0-.1,0-.2,0-.2l.2-.2h.1s.1,0,.1,0h.1s0,.2,0,.2h0c0,0-.2.2-.2.2h0ZM734.7,353.6h-.2c0,0,.1-.2.1-.2h.1s-.1.2-.1.2ZM737.6,350.2h0s.1-.1.1-.1h0s0,0,0,0h0s0,.2,0,.2h-.1s0,0,0,0h0c0,0,0,0,0,0ZM739.1,353.3h-.3v-.2c0,0,.2-.2.2-.2l.2.2v.2c0,0,0,0,0,0ZM742,354.5l.4-.2h.1c0,0,0,0,0,0h0c0,.1-.2.3-.2.3h0c0,.1,0,.2,0,.2h-.1c0,.1,0,0,0,0h0c0-.1,0-.2,0-.2h0ZM741.5,357.1h-.1c0,0,0,0,0,0h.1c0,0,.1,0,.1,0h0c0-.1.1-.2.1-.2h0c0-.1,0-.3,0-.3h0c0-.1.2-.3.2-.3v.2s.1.1.1.1v.2c.1,0,.2.1.2.1h-.1s0,.2,0,.2h0c0,.1,0,.3,0,.3l-.4-.2h0ZM741.2,356.9h.1c0,0,0,0,0,0h0c0,0,0,.2,0,.2h0s0,0,0,0h0s0-.1,0-.1h0s0,0,0,0ZM737.4,357.1h.2c0-.1,0,0,0,0h0c0,.1-.1.2-.1.2h-.1s-.1-.1-.1-.1h.1c0,0,0,0,0,0ZM701.7,372.6h0c0,0,0-.1,0-.1h0s0,0,0,0h0c0,0,0,.1,0,.1h0ZM726.9,369.1h0s0,0,0,0h0s0,0,0,0ZM726.2,368.9h0s0,0,0,0h0s.3-.2.3-.2h.1c0-.1,0-.1,0-.1h0s.1,0,.1,0h0s-.1.2-.1.2h0c0,0-.1,0-.1,0h-.1c0,0,0,0,0,0h-.1s0,0,0,0h0ZM737.5,352.6h.2c0-.1.2-.2.2-.2h.1,0c0,.1-.1.2-.1.2h-.1c0,0,0,.2,0,.2h-.3c0,0,0,0,0,0h0c0-.1,0-.1,0-.1ZM742.2,355.1h0s0,0,0,0h0c0,.1,0,.1,0,.1h0s0,0,0,0h0ZM12.1,280.3l-.3-.8v-.7c0,0,0-.4,0-.4v-.4c0,0,.7-1.1.7-1.1l1.7-2.6,1.6-1.6.6-.5h.1c0,0,3.6-1.5,3.6-1.5l.3-.4,1-2.1,3.8-1.7.6-.2.8-.3,4.7-1.7,2.5-1.1.3-.2,1.3-2.3,2.8-2.6.9-1,4.6-3.3,1.9-.8,2.6-2,3.4-1,1.6-1.1h0s1.2-1.1,1.2-1.1l2-.8,2-1.9,2.5-.9,2.4-1.3,1.8-.3.9-.5.6-.5.6-1.4,2-1.5.6-.4,3.8-3.7.9-1.9.3-.4.3-.2,1.2-.9,2.8-4.3,2.3-8.6.9-2,2.9-3.4,1.1-.3.4-.5,1-.4,1.4-1.9,3.7-3.5.6-1.7v-1.4c0,0,2-4.1,2-4.1l1.9-1.4,3.3-1,.8-1.4,1.5-1.5,2.1-4.4v-.3c.1,0,.3-.4.3-.4v-1.7s-1.1-2.2-1.1-2.2l-.5-2.2-2.7-2.5v-.2c0,0-.3-1-.3-1l.9-2,1.4-2.2,1-1h.8c0,0,3.5.7,3.5.7l1.7.4,2.7-1.3.4-.5,1.2-2.3,1.9-1.6.7-2.2.3-1.9,1.1-2.6,3.4-3.2.3-.6.2-.6v-.2s0-.9,0-.9l.3-2.7.8-3.1-.5-.5-.9-3.3-1.3-2.4v-.2c0,0-.1,0-.1,0l.3-1.5-.3-3.1.2-.8v-.3c0,0,1-.5,1-.5h1.8c0,0,1.9-.4,1.9-.4l.8-.5.6-1.1,1.6-.8,1.2-2.8.3-2.3.8-1.8.9-1.5,2.5-3.3,1-.8h3.5c0,0,.7,0,.7,0h0s3.4-2.3,3.4-2.3l.7-1.3.5-4.1-1-1.6h0c0-.1-.4-2.1-.4-2.1l-.2-2.9.6-2.9v-.6c0,0,.4-.7.4-.7l-1.1-2.1.6-2.9,2.8-7.3.4-.8.4-.5.6-.6.3-.3.8-.7,3.9-2.8,2.1-2,.5-1.4,2.8-5,1.3-1.8,2.5-1.5,1.1-.7.5-.7,2.6-5.4,1.2-1.1.9-2,.7-.7h0c0-.1,1.8-1.5,1.8-1.5l2.3-1.1,4.9-1.1,3.5-.5,2.9-.5,1.4-.4.9-.3,1.2-.6,1.2-.8,1.1-.9,2.8-2.3.9-1.6h0c0,0,.8-3.4.8-3.4l1.7-4.6,2.4-5.2h0c0-.1,0-1,0-1l3-4.9h.2c0-.1,1.4-.3,1.4-.3l.3-.2,1-1.4,1.9-1.1.3-.8,1-.4h1s.4,0,.4,0h.9c0-.1,1.6-1.8,1.6-1.8l.8-.4,2.4-.9,2-1.5h0s.9-.5.9-.5l5.2-1,3.7-1.1.6-.2,1.5-.5.2-.2,1.8-2.9,1.7-1.3.9-.5,1.8-2.8.9-1,1.2-.2,1.3-.3,1.4-.8,1.3-.6h1.6c0,0,1.2-1,1.2-1l1.3-.6,1.5.6,1.6.7,2,.9,3.7,4,1.4.9.4,1,1.4.3,1.2.3h.7c0,0,.3.2.3.2l2.3-.5,3.6.9,2.1-.8h1.8c0,0,2.4.6,2.4.6l.7.2h.5c0,.1,1.8-.2,1.8-.2h3.2c0,0,.3,0,.3,0l.8.3,1.2.8,2.3,2.3.6.4h.2c0,0,1,.5,1,.5l1.5.5,4.6-.6,4.9,1.7,1.1.4h.1c0,0,1.4.2,1.4.2l1.8.2,1.8-1.3,3.7-.5.9-.4h2.9c0,0,.4,0,.4,0l2.9.6h6.3c0,0,1-.2,1-.2l.3-.2,1.8-1.1,2.1-.6h2c0,.1.7-.4.7-.4l2.4.6,1.8.8.9,2.5.5.9,2.6,2,1.6.5,7.4.6,1.9-.6,1.8-1.3,1.5-.6h2.9c0,.1,1,.7,1,.7l.3.3v.2c.1,0,.3,1,.3,1v1.6c-.1,0-1.4.7-1.4.7l-1.9-.2-1.1,1.1-1,5.4v2.3c0,0,0,.4,0,.4l.2,1.4.6,4.8,3,5.9.6,1.9v1s0,0,0,0l2.4,3.7.5.5,2.8.3h.3c0,0,.8.7.8.7l1-.2.2-.5,3.2-2.1,1.2-1.4h0s2.7-5.5,2.7-5.5l1.9-5.5.7-.3h2.7s.8.2.8.2l2.4,1.1.7.8,1,3.2h0c0,0,.9,5.3.9,5.3l-.2,1.9-.4,10.5.5.9,5.6,3.6,1-.4h.1c0,0,.7-.7.7-.7l.8-2.2v-.7c.1,0,.1-.1.1-.1v-1.2c0,0-.2-.8-.2-.8l-.9-2.8.4-3.2-1.1-1.9v-.5s.3-2,.3-2l1.2-2.6,1.2-1.1.2-.5.2-.7v-.5s-.3-1.2-.3-1.2l.2-1.6,1-.8,1.4-.9.4-.2,3.7.2,2.4-1,2.1-.3h.4c0,.1,2.9,1.2,2.9,1.2h1.7c0-.1,1,.4,1,.4h1.4s.2,0,.2,0l1.6-.6,2.7-2.1,1-.4h.3c0,0,2.4-.3,2.4-.3l1.5.3,2,.4h2s3.5-1.2,3.5-1.2l1.1-.5,2.9-.6,2.6.9h.7s1.1,0,1.1,0h.5c0-.1,1-.7,1-.7h.1s1.6,0,1.6,0h.3s1.8,1,1.8,1l1,1.3.4.2,1,.3h.6s1.4-.2,1.4-.2l1.7-.6h.3c0,0,.5-.8.5-.8v-1s-2.8-2.8-2.8-2.8l-.3-.8.8-2.9-.3-1.1h0s.6-.6.6-.6h1.4s.4.2.4.2l.6.4.9,1,1.9,2.8.3,2,1,.8h.6c0,0,.2,0,.2,0l.9,1.9,1.9.7,1.2,1.2h.1s1.5.3,1.5.3h2.1s1.9-.9,1.9-.9l1-1.9,1.6.3,1.5-1.5.6-1.4.5-1.5v-2.9s0-.1,0-.1l.3-.4.4-.2h.5c0-.1,2.4,1.8,2.4,1.8l.4,3.5.8,1.5,2.5,1.4h.4c0,.1.4.2.4.2h.2c0,0,1.4-2.1,1.4-2.1l.5-1.5v-1c.1,0,.3-1.3.3-1.3l.9-1v-.3s0-.3,0-.3l-1-.7v-.3c-.1,0-.3-.6-.3-.6v-.9s.3-.6.3-.6l1.1-2,.6-.2h.2c0,0,1.4.5,1.4.5l2.9-1h3.2c0,0,0,0,0,0l1.2.4,1.5-.2,1.9-.9.7.2,2.5,2.1v1.2c.1,0,.3.4.3.4l.9,1,1.1.9,1.2,1,1-.6h1s1.7-1.6,1.7-1.6l.2-1.8,1-1.1h.2c0,0,2.2,0,2.2,0h.3c0-.1.1-.3.1-.3l.9-.9h2.8c0-.1,1-1.2,1-1.2l1.4-.2.5-.5.2-.2h.2s.4.2.4.2l1.4,2.3,1.1.9,1.1,1.5v.5s-.5.4-.5.4l-1.1.8.2,1,.2.9,1.9,1.4h0c0,.1,0,.2,0,.2l.9,1.4h.3c0,.1,2.5.2,2.5.2l1.4,1.9h1c0,.1,1.4,1,1.4,1l1.9,1,1.5,2.3,1.9.7h.3c0,.1,1,1,1,1v2.2c0,0,.2.3.2.3l.7.9,1.4,1.7v.8c-.1,0-1.3,3.2-1.3,3.2l-.6.2-1,1.8h-.5s-.6.9-.6.9l-.5,2-.4.4v1c0,0,0,.5,0,.5h-.4c0,.1,0,.5,0,.5l-.8,1,.4,1.5-.2.5h.3c0,.1-.2,1.1-.2,1.1l.3.2-.3.2.6.2-.3,1.1.4.5-.3.4v.6c.1,0-.3.2-.3.2l.4.3-.6.5h.2c0,.1-.1.5-.1.5l.6.3v.7c0,0-.4.6-.4.6h0s1.9,1.7,1.9,1.7l.9.2.5.9h.3c0-.1,1.9.9,1.9.9l1.6,1.5h1.1c0,.1,1.3,1.1,1.3,1.1l2.7.6.6,1v.3c.1,0,.5,1.1.5,1.1l.4,1.5-.4.5.9,2.4h.6s.3.4.3.4l-.2.9v.3s0,.2,0,.2l1.1.9.3.3-.3,1.6,1.4.6v.5c0,0,.1.5.1.5v.4s-.6,1.1-.6,1.1v1.2c.1,0-.9,1.3-.9,1.3l-.2.9h-.3c0,.1-2.7.2-2.7.2l-1.4-.6h0s-.6,1-.6,1l.3.6-1.5,1.3,1,.8-.6.2-.6,2.8-.6.4h-1c0,0-.6,1.7-.6,1.7l-1,.7.9,2.5-1.1,2.9-1.2,2.8,1.4,2.5,1.2,1.2,1.8.4-.2,1.3.9,1.1,1,.2.6,1,1.3.4.5,1.2-.6,1.4v1.2s-.6.8-.6.8l.8,1.6h0c0,0,.2,2.3.2,2.3l.6,1-.3,1.8h.5s.8,1.1.8,1.1l1.3.5v.4s-.6.3-.6.3l-.2.3-.3,1-.6.8,1.4,1.9-.6,1.4.5.7v1s1.3,1.3,1.3,1.3l.4,1.3.3-.4.7-.2h0s1.9,0,1.9,0l.2.2-.5.4-.4,1.1-.6.5v.9c.1,0,.2,0,.2,0h1.2c0,0,1,.6,1,.6v.4s0,.6,0,.6l.6.8.5,1.4-.3.9,1.1.9-.5,1.1h.4c0,0,.8,1,.8,1l-.2.7.5,1.1.5.3,1.3.7v.6c.1,0-.2.4-.2.4l-.8.9.4,1.2-.4.9-.6.3h0s0,0,0,0l.5.9h0c0,0,.2.4.2.4l-.5.5v.6c.1,0,1.2-.1,1.2-.1l.6.4.5-.3.2.5.7-.3.2-.5.3.4.7-.3.6.5.7-.5,1.3.5.8-.2.4.4.3-.6h.8s.7-.7.7-.7l.6.2.8-.8h0s1.4-.3,1.4-.3l.2-.8h.6c0-.1.2-.6.2-.6h1.2c0,0,.6-.7.6-.7v-.9c0,0,0-.4,0-.4h.2c0-.1,1-.3,1-.3h.2s2.4.7,2.4.7l.5-.5.4.2.4-.8,1-.3.5.4-.3,1,.6.5,1.6,1.2h1.1c0,0,.4-.3.4-.3l.5.3.8,1.2,1.1-1.4v-.7c.1,0,.9-.6.9-.6l.8-.2.7-1.2.5.2h1.1s.2.8.2.8l-.2.7v.5c0,0,0,.7,0,.7l.8.9v.8c.1,0,1.1,0,1.1,0l.7.9-.2.4.4.4-.3.5.4.6,1.1.2h.1s2.2-1.6,2.2-1.6l.6.9.8.5h1.1c0-.1,1.2.7,1.2.7l.6-.4.7.3v.2c0,0,0,1.1,0,1.1l.9.7-.3.7.3,1.1-.9,1.1.3,1-.7,1,.3,1.1.9.3.9,1.7v.2s-.3.6-.3.6l-.8.4v.5s-.8,1.2-.8,1.2l.3.8-.5.8.8.5-.2.7-1.4.8v.7c0,0-1.2.2-1.2.2l-.5.7.4,1.1-.7.3-.9.5v2s-1,.5-1,.5l-3.9-.9-.2,1.7-.4.3h0s0,.4,0,.4v.2s.6,1.2.6,1.2l-.5,1.3.3.4-.5.7.4,2.4-.4.2h-.8s-.5.6-.5.6l-.7.3.2,1-1.4,1.7-.3.9-.9.7-.9,1.3.9.9.3.4h.9c0,0,0,.1,0,.1l.7,1.7v.8s.9.3.9.3l-.5,1.5-1,.3-.3.3-.4.7.7,1.1-.2,1.1,1.2.9v1.1s.9,2.1.9,2.1l.6.6h.6s.6,1.1.6,1.1l.5.2.4.7v.7c0,0,0,.5,0,.5l-.2.2h-.3s-1.8-.8-1.8-.8h-.7c0,0-.3.1-.3.1h0s-.2.7-.2.7l-.7.6h-1.1c0-.1-.2,0-.2,0l-.4.4-.3.8.8,1.7h0s1.6.5,1.6.5l-.6.8-1.7.5h-1.1c0,0-.9.5-.9.5l-.6-.4h-.6s-.2.1-.2.1h0c0,0,.3.6.3.6l.4.7.5.3.9.2.6-.4.5.3.6-.3h0s.8.6.8.6l1.7-.6.5.3,1,1.2,1,.2.6,2,1.2.2.2.2v.4s0,0,0,0l-1,1.1-2.4.7-.4,1.9v.3c0,0-.5-.3-.5-.3l-1,.3-.6-.5h-.4c0,.1.3.9.3.9l-.8,3.1h0s.2.7.2.7l-1.3,1.3.4,1.1-.5-.2-.8.8-.6.8v.6s.8.8.8.8l-.7.7.5,1h0s-.9,1-.9,1h-.7s.5,1,.5,1l.6-.4v.6s.9.2.9.2l.2,1,.3.3-.2.8h.4s0,.5,0,.5l.3-.2.3.3v.8c0,0,.5,0,.5,0l.4.7.2.4,1.2-.3h.1s-.5,1.5-.5,1.5l.3,1-.4,1.6v.6c.1,0,.2,0,.2,0l1.4.9.3.5.6-.3.7,1,1.3.3.4-.3.8.7,1-.5.9.3.7.4v.7c.1,0,.8-.6.8-.6h.9c0,0,.5.7.5.7l-.2.5v.9c.1,0,.8-.2.8-.2l1.1.3-.5,1.6-.5.6,3.1,1.2.2,1,1.2-.6.6.8h1.6c0,0,.2.3.2.3h.9s0,0,0,0l.4.8.9.4v.6s1.2.7,1.2.7h.7s.6-1,.6-1l.4.4-.4,1.3-2,1.9.4,1,1.4.2-.9,1.2,1.6,2.1-1.6.4v.8c-.1,0,.2.4.2.4l1.3.2.9.5.3.7v.9c0,0-1.2.9-1.2.9l-.2-.3.2-.6-.3-.2-.4-.2-.5.4-.8-.3-1.1.7-1.3.3-.5.5-.7-.2-1,.5.2.7.7.7h0c0,.1-.7.6-.7.6l.3.4.2.2.4-.4.9.6.5,1.9h1.2c0,0,.2.4.2.4l.9.4.5-.3,1.3.8,1.2.3.6-.3.4.4.7.3,1.1,1.4.5-.4,1.7.3.2.6-.8.3-.2.8h-.4s-.4.8-.4.8l-.8.4-1.1,2.8h0s-.2,1-.2,1l.5.7-.3.8.2,1.5-.7.4-.3.6h.8c0,0-.2.8-.2.8h.5c0,0,1.2,1.7,1.2,1.7l1.3.8.3-.3.5-.5,1.7-.8h.1s1.8,1,1.8,1l.2-.2,1.2-1.6,1.1-.3.4.3.4,1.2h1s.8.3.8.3l.4-1.2,3-1,.7-.5.6.4,2.7-.5.9-.6v.2c0,0,.2,2,.2,2l.5.9-1,1.7-.6.4,1.3,1,1.4-1.3,1.3-.4,1.2-1.1,1.8-.3,2.1.5,2.1-1.1,1.7.4.6-.9.8-.2v-.8s1.3-.4,1.3-.4l1.1-1,.4.2.4-.6.4-.5h1.1c0,0,1.1-1.3,1.1-1.3l.2-.8,1.1-.6.5.2-.3,1.1.2.3h0s1,.5,1,.5l.3.5-.3,1.2h.4c0,.1,0,.4,0,.4v1.4c0,0,.9,0,.9,0l.7-.4.6-.3.6-.8v-.9s.6-.4.6-.4l.2-.9.8-.5.8.2.5-.5.7.4.5-.4.6.4.2,1.3h0c0,.1.7,1,.7,1h.2c0,0,1.1-.8,1.1-.8l.8-.7v-.6c0,0-.4-2.9-.4-2.9l1.1-.5.4-.8,1.1.2v1.2c.1,0,1.2.2,1.2.2l.5.6h.8c0-.1,0-.7,0-.7h-.5c0,0-.2-.6-.2-.6l-.7-.4v-.4s0-.7,0-.7l.6-.8h.5s.4-1,.4-1v-1.1c0,0-.5-.2-.5-.2v-.9c0,0-1.1-1.8-1.1-1.8l.2-.3h0s-2.1-.2-2.1-.2h-.5s-2,1-2,1h-.2s-1.3.7-1.3.7l-.8-.2-1.2-1.3h0c0,0,.7-2.3.7-2.3l2.1-.5.8-.9,1.6-.6.5-.6h.5c0,0,.2-.7.2-.7l.4-.5.9-.2,1.4.5h.3c0-.1,1.7-1,1.7-1l-.4-.2-.2-.7-.8-.3-.8-1.8-1-.2h0s0-.5,0-.5l-.7-.4.2-1.1.6-.3v-.5s.3-.2.3-.2l.7-.4v-.3s1.8.7,1.8.7l1.5-1.2h.4c0,.1,1.1.4,1.1.4h.1c0,.1-.2.9-.2.9l.4,1.1-.5.2-.3.9.2.3-.8,1.3v.4c0,0-.5.5-.5.5l1,1.2.4.2,1.5-.2,2.6-1,1.2-1.7h1.3c0-.1.5-.5.5-.5l-.3-.5,1-.8.4.7.8.3.7,1.3-1.5,1.4h-.4c0,0-.4.3-.4.3l-.2.7h.3c0,0,.6.5.6.5l2.1-.4h.9s.6-.5.6-.5h.7s2.2-2,2.2-2l1,.3,1.2-2.7v-.2s0-.2,0-.2l-.5-.5h.3c0-.1.5,0,.5,0l1.8,1.5.3-.2.9.7.2.6,1.3.2h.7c0,.1,0,.7,0,.7l.4.5v1.7c-.1,0,.8.1.8.1h0s.3-.1.3-.1l2.2-1.4h.9c0,.1,1.1-1,1.1-1l1.2-.4.3-.5,3.5-.4,1.7.2.3-.2.5-.3.4-.3-.2-.2.6-1.4-.2-.7,2.9-1.5.4-.4h.9c0,0,.8-.6.8-.6l2.3-.7,1.2-1.1v-.6c-.1,0-.2-.2-.2-.2l.6-1.2.9-.9h.6c0,0,1.4-1,1.4-1l.6-.2.9-.3.7-.4,1.1-.5.8.3,1.9-1.3,1.8-.3,1.1-.6.3.2-.2.5,1.5-.4.8.2.8-.2,2.3.9.6-.9,1.7-1.3h.3s0,0,0,0h2.1s.2,0,.2,0h.8c0,0,.8-1.9.8-1.9l1.3-.3.3-.4h1c0-.1.5.4.5.4h.9s1,.3,1,.3l.8-1.1,1.4-.5v-.8c-.1,0,2.5.3,2.5.3l.8.6h1.3s1.3,1,1.3,1l.9,1.4.9,2.3h0c0,.1,0,.5,0,.5l-.4.5v.9c-.1,0,.2.8.2.8h.7c0,.1.2.8.2.8l-.5,1.3,1.3-.3.5.7.7.4.5.3h.2c0,.1.9,1.3.9,1.3h0c0,0-.5.6-.5.6v1.5c0,0,0,0,0,0l1.3-1,1,.6.2-.4.5.6v1.7c0,0-.5.7-.5.7l.2,1.7.9.6h.2s1-.3,1-.3l1.1,1,.5-.2.2-.7.5.3.5,1.2.6.3,1-2.3.9.9,1.3-.5,1,1.1h.3c0-.1.6.2.6.2l-1,1.2.2.5.4.2-.3-.6.3-.2h1.5c0,0,.6,1,.6,1l.4-.5,1.7-2.4-.2-.4h0c0,0,.4-.3.4-.3l.5.8,1.2.3.9-.7h.7c0,.1.4-.5.4-.5l1.1-.6,1.2.3.8.6h.2c0,0,.6-.5.6-.5l-.5-.2v-.8c-.1,0-.5-.3-.5-.3l1.2-.6.4-.8h.6s1.1.6,1.1.6l.7-.2.3.3-.9.8.3.4h.4c0,0,0,1.7,0,1.7l.4.2.6-.5-.2-.9v-.4c.1,0,.5.2.5.2v-.6c-.1,0,.2-.2.2-.2l.3.3,1.2-.2.7.8.5-.2.6.4h.9c0,0,0,.3,0,.3l.8.7.2-.5,1-.3,1.6,1.1.5-.5,1.3.2.5-.4.7,1.2.8-.3h.2s.3,0,.3,0h0s0,1.1,0,1.1l.5.4h.7s.6.7.6.7l-.6.9h0c0,0,1.4,1.1,1.4,1.1l.7,1.2.5.8-.5.4-.2.6-.7.4.2.9-.3.5-.6.5-1,.2h-.6c0,.1.2.8.2.8h.3c0,.1-.3.8-.3.8l-2.2.2-1.3,1.5.3.6-1,.2-.6,1v1s.3.3.3.3l-.2.5.8.3.5-.2v.5s0,.2,0,.2l-.2.5-.2.2-1.4.2-.8,2.4h-.1c0,0-1.1.5-1.1.5l-.3-.7h-.9c0,0-1.8,1.1-1.8,1.1l-.3.5v.3c-.1,0-.2,0-.2,0l.2-.8-.5-.2-4.2,1.9h-1.2s-.4-.5-.4-.5l-.8.2v-.6c-.1,0-1,0-1,0l-.8.3-.4.4-.9,1.5-.6.4-.6.3-1.4.6-.4-.9-.5-.2v-.6c0,0-.4-.2-.4-.2l.4-1-.3-.5-.4-.5h-.9s-1,.5-1,.5l-1.2,1.3-1.2.4-1.1,1.2v.4c.1,0,.1,0,.1,0l-1,.4-1.8-1-2.2,1-.6-.3-2,1.8-.5.2h0c0,0-.3.7-.3.7h0c0,0-1.8,1.3-1.8,1.3l-1.3-.9-1.2,1.7h0s-.7-.4-.7-.4l-.4.2h-.3s-.6-.5-.6-.5l-.6.5h-.1c0,.1-1.8,1.1-1.8,1.1h-.2c0,0-.7,1.5-.7,1.5l.3.7h0s-.6.6-.6.6v.4c.1,0-.3-.1-.3-.1l-.5.4-1.4-.4h0s-.4.4-.4.4h-.5c0,0,0,.7,0,.7v.3s-.8.5-.8.5l.8,1.1-.5,1v.3c.1,0,0,0,0,0l-.4.7v1.7c-.1,0-.9.5-.9.5l.4.7-.6.5v.7c0,0,0,.6,0,.6l-.3.7v.2s.5.2.5.2v.6s.3.1.3.1l-.6,1,.4.5-.2.6.2.4-.8.7.3.7-.8.3v1.7c0,0,0,.1,0,.1l-1.3.4-.4.2-.2.4h-.7s0,.4,0,.4l-.7.5-1.1.3-.2.8v.5c0,0-.7.6-.7.6v1.1c.1,0-.5.8-.5.8l.3.8h.6s.3,1.6.3,1.6h1.8s1.5.7,1.5.7l-.3.7.9.6.3.9h.3c0,.1-.2,1.1-.2,1.1l1.7-.8.2.6,1.6.9h0s0,.6,0,.6l.6.9v1c-.1,0,.3.7.3.7v.5c-.1,0,1.5.3,1.5.3l.9,1.5h.6s.8.6.8.6l.8.3-.5.2-1.8-.4-3,1.2v-.7c0,0-.7-.2-.7-.2l-.7.2v.4s-.5.3-.5.3l-1.2.2-.7.6-.3-.2-1.1.2-.2-.2.5-.7v-.9c.1,0-1.3-.8-1.3-.8l-1.6-.2-1.8,1.3.3-.7-.2-.6.7-1-.4-1.1-1.8-.3-.8,1.3-.8.5-1.3.4-.6.7v1.4c-.1,0-1.1.2-1.1.2l-.2.5-.7.3v.4s-.7.7-.7.7l-.4-.3h-.9c0,0-1.3.9-1.3.9l-.6,1.1-1.6-.5-1,1.1h-.3s.2-.4.2-.4l-.6-.5-.8.4-.3.7.4.4h-.5s-.3.4-.3.4l.2,1.1.7,1,.4.2,1.5-1.1h.3c0,.1,0,1.1,0,1.1l1.4.2-1.3.3-1.1-.3-.6.7-.4-.3-.6.3-.9,1.8v.4l.6.2-1.2,1.5v1.2c-.1,0-.5-.8-.5-.8l.2-1.7-1.2-.3-.6.5v-.8c.1,0-.2-.1-.2-.1l-.4.7-1.1.6,1.4.5-.2.5h.3c0,.1,0,1,0,1l-.7.2v-.5s-.7,0-.7,0v-.4s-1-.7-1-.7l-.4.2v-.8c.1,0-.6-.2-.6-.2l-.2-.4-1.2.3-.5-.7h-.5c0,.1-.3.8-.3.8l.3.2v.7c-.1,0,.8.6.8.6l-.3,1.2.7.2-.3,1.1-.6-.3-.5.4-.3-.5-.7.3-.4-.7.3-.5-.7-.8-1.6.5-1.3,1.2-.3,1,1.2.8.2.8h.5s-.5.3-.5.3l.4.2.2.8-.2.3-.5-.2-1.6.2-.9,1h-.7c0,.1,0-.1,0-.1l-.5-.2-.5.7v-.8s-.9-.3-.9-.3l-.5.2-.2-.4.3-.6-.4-.4-1.1.2-.3-.3-2,.6-1.5,1.3-1.6,2.5-.3.6-1.1.5-.7-.6-1,.9-.6-.4-.2-.6h-.7c0,0-1.1,1.2-1.1,1.2l-1,1.9-.2,2.7.5,2.3.5,1.7.7-.3h1.4c0,.1-.1,1.3-.1,1.3l-1.1,1.3,1,2.5.3.4-.2,1.4.2.3-.3,1.1-.3-.2-.4.4.2.9-1.4.4-1,.7v-.3s-.7-.3-.7-.3l-.5.6v-.5c-.1,0-1.8-.8-1.8-.8l-1.4.9-.8.2v.6c0,0-.4,0-.4,0l-.5.2-.2.2h-.9s0-1,0-1l-2.2-.2.3-1-.9-1h-.9c0,0,0-1.2,0-1.2l-.6-.5h-2.2c0,0-1,.6-1,.6l-2,.4h-.4c0,.1-.3-.2-.3-.2v-1.2c0,0-.9-.3-.9-.3h-.5c0,.1,0-.5,0-.5l-1.3.2-.7.6v-.7c0,0-.5-.4-.5-.4h-1.1c0,0-.9.7-.9.7l-.4-.9h-.5c0,.1-.7,0-.7,0l-.6.2-1.4-.6-2,.2-.5-.2v-.4s-.6-.1-.6-.1l-3,.7v-.7s-.7-.4-.7-.4h-3s-5.2.7-5.2.7l-6.7,2.1-.9.4-.7,1.1-.9-.3-2.2,1-.6.6v.6c.1,0-.5.9-.5.9h-.6c0,0,.6-.6.6-.6l-.6-.9-.7-.2-1.4.3-3.8,1.8-1,1-.3,1h-.4s-.3.4-.3.4l1.2-.3.4.3-1,.6-.4.8v1.6c.1,0-1.1.5-1.1.5v.8c0,0,.4,0,.4,0l-.2.2h-.6c0,.1-.4-.1-.4-.1l-1.7,1.7v1.4c.1,0,.6.2.6.2l.4-.4.2.6h.4s-.4.3-.4.3l-.5,1-1,.5-.4,1v1.4c.1,0,.5.3.5.3h-.7c0,0-.9.4-.9.4l-.3.5-.4-.2.4-.6-.8-.6-2.9.5-1.7,1.1-.3.6.4.5-.4-.2-.5.3-.4.7v1.4c0,0-.7.8-.7.8l-.2-.5.5-1.3-.7-.3-.3-.7-.9.3-.6.8v-.6h-.4c0,0-.2.3-.2.3l-.5-.2.2-2.2,1.4-.6-.7-1.1-1.1-.8-1.8-.4h-.8c0,.1-1.2.3-1.2.3l-.2.2v.7c.1,0-.2-.2-.2-.2l-.2-1h-.9c0,.1-.3.6-.3.6h.7c0,0,.5,1,.5,1l-.4.6-1.2.3.3.7-.2.6.7.7h-.6c0-.1,0,.5,0,.5l-.8,1h-.2c0-.1.2-1.5.2-1.5l-1.5-.4-3.4,1-3.8,1.6-9.5,4.7-9.2,5.2-7,4.2-1.5,1.2-1.6.5-6.3,4.3-4.1,2.8-5.3,4.7-.3.6.3,1.8-.5,1-1.1.9.2,1.1h.7c0,.1,0,.8,0,.8l.7.2-.4.4.2.7h-.5s0,.5,0,.5l-.4-.3-.4.2-.3.8-.6.4-1.6.3-2.7,1.3-1.2,1.3-4.1,2.8-3.6,3-.8.7v.9s-1.3.5-1.3.5l-2.4,2,.3.6-.2.4-2.1.6-12.9,8.3h-.6s.2.5.2.5l-2.7,1.6-.9,1.4-4,1.6-3.9,2.2-7.5,5.1-3.2,2.6-10.6,9-6.1,5.9-2.8,3.6-1,2-.3,1.9h-1.9s0,.9,0,.9l.6,1.7.5.4.2.7-.3.5.3.9-1.2,1.1-.9,2.6v.7s.6.4.6.4v.6s.3.4.3.4h-.5s.1-.4.1-.4v-.4c-.1,0-.4,0-.4,0l-.9.2-1.4,1.1-2.6,2.5-5,4.1-5.9,6.3-.3.3v-1.2c0,0,1.2-1.4,1.2-1.4l5.5-5.2-.6-.5.2-.5h-.1c0,0-.6-.2-.6-.2h-.5c0,0-.5.7-.5.7l-.9-.8-.2,1.1.2.3-.5.7h-1.2c0,0-.5.4-.5.4l-.4-.4-1.4.3-1.2.7-3.2-2.2-.4-.6-.6-1.1-1.3-.3h0s-.8-.7-.8-.7l-.5-.9,1.3-.7.2-.2.8-1.2v-1.1c0,0,.5-.2.5-.2l.5-.9h-.9c0,0-1.3-1-1.3-1v-.4s-1.1-1.5-1.1-1.5v-.5s0-.2,0-.2l-1.5-2,.2-.5-.5-.3.4-1.7-.3-1.6.5-.6v-.7c0,0-.4,0-.4,0l-1.5-.9v-.5s.7-.6.7-.6l-.8-.2.3-.5-.6-.2-.3-.6h-.2c0,0-.5-.3-.5-.3l-.5-1-.4.5-.3.3.4.9h-.4c0,.1-.3-.4-.3-.4l-.6.5-.3.7v.2s-.4.8-.4.8v.3c0,0,0,.1,0,.1v1.1s-.6.2-.6.2l-.7-1h-.6s-.1.7-.1.7l-1.2,1.3-.3,1.1-1.4,1.3v-1.2s.8-.3.8-.3v-1.7s-.7,0-.7,0l-.4.3-.2-.4h-1.1s0-.7,0-.7l-.4-.8-1.7-1.5h-.3c0-.1-.2-.8-.2-.8l-1.3-.5-1.4-1-.5.9-1.6.2-3.5,2-.9,2.7v1.2c0,0-.7,0-.7,0l-.6.6-.2.3-1,2.1-.8.2-.6,1.4-.6-.2-1.2-.8-.7-.6-.3-.6v-1.4s0-.2,0-.2l-.5-.4-.2-.4h0c0,0-1.2,0-1.2,0v-1.6c0,0-.6-.5-.6-.5v-1c0,0-.8,0-.8,0v-.2s0-.4,0-.4h0s0-.6,0-.6v-.3c.1,0,.4-.7.4-.7h.5c0-.1,0-.9,0-.9l1-.2.9-1.2v-1.2s-.5-.5-.5-.5l.8-.4-.5-.6.6-.4h0c0,0-.6-.8-.6-.8h0s0-1,0-1l.3-.4v-1.2c0,0-.6,0-.6,0v-.8c0,0,.8,0,.8,0l.4.6.3-.8-.3-.3v-.4c0,0,1.2-.5,1.2-.5h0s-.3,0-.3,0l.2-.5-.3-.6-1.5-.3.2-.7-.3-.8.5-1.8.6-.4-.3-.3.3-1.4,1.5-1.5.7-.5,1.2-.5v-1.1s.4-.4.4-.4h.5s0-1.1,0-1.1l.5-.7v-.4c-.1,0,.3-.1.3-.1l-.5-.4-.6.5-1-.4-.6.3-.3-.2.2-.5-.8-.4-.4-.2v-.7c0,0-.7-.1-.7-.1v-.6c0,0-.8,0-.8,0l-.8-.9v-.5c0,0-.9-1-.9-1l-.2-1.3h0s-.6.8-.6.8l-.9-1h-.2c0-.1-1,0-1,0h-.3c0-.1-1,1-1,1l-.3-.3h-.2s-1,.4-1,.4l.3.8-1.5.2-.3,1.4-1.2-.4-.2-.3h.5s-.5-.6-.5-.6l.4-.5-.3-.3.3-.5-.5-.7-1-.2h-.5c0,.1.5.8.5.8v1.5c-.1,0-.2,0-.2,0l-.6-.6-.6-.6-2.3.6-.4-.2-.9.8h0s-.8.1-.8.1v-1.1c0,0-.3-.2-.3-.2l-1,1.5h-.9c0,.1-.8-1.3-.8-1.3l-1-.6h-1c0-.1,0-.2,0-.2l-.8-1.6-.7-.2-1,.9-1.1-.8h-.5c0,.1.9,1.6.9,1.6l-.2.2h0s-1.2-.7-1.2-.7l-3.2.3-.9.2v.3c0,0,.1.2.1.2v.2c0,0-.4.4-.4.4l-.6-.7h-.5s-1.6-.1-1.6-.1l-1.1,1.1-.4-1.2h-1c0-.1-.1-.7-.1-.7h0s-1,0-1,0l-.2-.9h-.3c0,0-.2,0-.2,0l-1.2.3h0c0-.1.4-1.9.4-1.9l.5-.2h0c0,0-.4-.3-.4-.3l-1.2.8-1.3-.8h-.1s-.7.6-.7.6l.2.3.6-.2v.8c-.1,0-.6.3-.6.3l.2.7-.7.5-.5,1.3-.2.2h-.2c0,.1-1,.3-1,.3h-.3s-.5-1.1-.5-1.1h-.7c0,0-.4.7-.4.7h-.8c0,.1,0,.1,0,.1l-.4-.6h-.2c0,0-.5,0-.5,0l-.2,1.1-1.4-.5h-.1c0-.1-.5-.7-.5-.7l-2-.3-1.1.3-.4-.3h-1c0,0-.2.3-.2.3l-.4.4-.2.3-.9.3v1s-.1.2-.1.2l-.2.2h-2.2c0-.1-.6-.2-.6-.2l-1.4-.3-.5-.4-1.2.2-1.6-1.8h-.5c0-.1-.5-.2-.5-.2v-.4s-.6-.5-.6-.5l1.1-.8-.2-.5-.7-.4.3-.3-.9-.4.8-1.7-.6-.6h-.1c0-.1.1-1,.1-1h0c0,0,.8-.8.8-.8l-1.1-.8.4-.2v-.5c.1,0,.1-.1.1-.1l-.6-1.3.3-.4v-.7c-.1,0,.4-.2.4-.2l.4-.7,1.2.6v-.8s1-.6,1-.6v-.2c0,0-.5-.9-.5-.9v-1.2c0,0-.6-1-.6-1v-.2s.3-.2.3-.2l1.9-.6v-.8c-.1,0,.5-.9.5-.9l.9-.3h0c0-.1.6-.2.6-.2v-.4c-.1,0,.2,0,.2,0v-.6l-.7-.3.3-1-.2-1.1,1.1-1.2.5-1.1-.2-.6h0s-.4-.2-.4-.2l-.6,1.1-.3-.6v-.4c.1,0,.1,0,.1,0l1-1.8,1.5-1.9.2-.2,1.9-1.7-.5-.6-1.6.2-.6-.9h-1.6s-.1-1.1-.1-1.1h-.3s0-.1,0-.1l-1.3-1h-.3s-.9,0-.9,0l-.3-.6-.3-.6v-.3c.1,0-.8-.4-.8-.4l.3-.2-.5-.9.2-.8-.3-.9h-.5s.3-.7.3-.7l-.6-.8h-.6s-.2-.6-.2-.6h0s-2.5-1.6-2.5-1.6l-.5-.8v-.2s1.3-.7,1.3-.7l-.4-1.1.6-1.6v-1.7s.7-.7.7-.7l-.4-.5v-.7s-.4,0-.4,0l-1.8-1.1h0c0,0,0-.6,0-.6h0c0-.1-.7-.6-.7-.6l-.6.4-.8-.2-.2.3-.4-.5-1.3-.6.4-.5-.2-.5.3-.2-1.8-.6-.4-.2v-.3c0,0,0-.6,0-.6h0c0,0-.5-.3-.5-.3l.5-.6h-.8s0-1,0-1l-1.2-.3-.2-.2-.6-.8-.3-.6v-1s-1,0-1,0v-.7c0,0-.5,0-.5,0l-.2.4h-.5c0,0-.3-.5-.3-.5l.4-.2-.5-.2.7-.2.3-.6h-.5s0-.5,0-.5l-.5-.7h-.5s0-.2,0-.2l.2-.8v-.5c.1,0-.7-.9-.7-.9h-.1s-.5.3-.5.3l-.5-.2.2-.5,1.2-.5h0c0,0-.4-.4-.4-.4l.2-.6-.9-.4-.6.2-.3-1,1.1.2.4-.4-.6-.3.2-.5-.5-.5-.5-.4-.7.5v.3c0,0-.1.3-.1.3h-.3c0,0-.9-.6-.9-.6h-.9s.2-.7.2-.7l-.8-.3-.5-1.2-.7-.4.3-1.7-1.1,1.1-.7-1.4-.8-.5.2-1.1-1-.5.2-.3h.8c0,0,.3-.2.3-.2l-1.1-.7.8-.2,1,.5-.5-.5v-.6s.5-.3.5-.3h1s1.2-.8,1.2-.8l.2-.6-.3-1v-.8c.1,0,.2-.3.2-.3l-.4-1-.4-.2h.3c0,0,0-.6,0-.6l.3-.5v-.3s.2-.3.2-.3l-1-.6.7-.5v-.4c-.1,0-.3-.5-.3-.5l.3-.8,1,.6h.2c0-.1,0-.2,0-.2l-.4-1.1v-.4c0,0,.4-1.7.4-1.7l-.5-.2v-.7c0,0-.2,0-.2,0v-.2s-.3,0-.3,0v-.6s-.6.2-.6.2l-.7-.7v-.4c.1,0,.1,0,.1,0h-.2c0,.1-.2.2-.2.2l-.3-.8.2-.6h-.4c0,0,0-.5,0-.5l-1.4-.6h0s-.1-.8-.1-.8l-1.2-.4.8-.5.2-.9-.6-.2v-.4s0-.5,0-.5l-.3-.2-.3-.5.3-1.1v-.4c.1,0,1.4-.8,1.4-.8v-.7c0,0-.5-1-.5-1l.8-1v-.2s-.5-1-.5-1l.4-.7-2.1-1.2-.4-1.1.7-.6.6.2-.6-1.4.7-.6h0s0-1.4,0-1.4l1,.6h.4c0-.1-.4-.7-.4-.7l.3-1.2h0c0,0,0-.2,0-.2l-.3-.5v-.2c.1,0,.7-.8.7-.8l.5-.4h.9c0,0,.6.8.6.8l.4-.3-.2-.5.4-.7h0s-1.2.4-1.2.4v-1.6s-.8,0-.8,0l-.4-.9h-.9c0,0,0-.4,0-.4l.5-.4-.5-.4h-.1c0,0-.9.2-.9.2h-.3c0,0-.1,0-.1,0v-.5c0,0,0,0,0,0l1.6-.6,1,.4v-.6c0,0-.4-.7-.4-.7v-.5s0-.3,0-.3l-1.5-1.2-1.9.2-.4-.6v-1c.1,0,.7.4.7.4l.7-1.1v-1.3c-.1,0-.9-1.3-.9-1.3l.5-1.7-.2-.5-1-2.4-.6-.4.2-1.1-.4-.2-.3-.6v-.3c-.1,0-.1,0-.1,0v-1.5c0,0,0-.2,0-.2l-1.8-3-.2-.2-.6-.2.4-.8h-1.8c0,0-.5-.6-.5-.6l.2-.5-.7.4-.6-.8-1.2-.7-.2-.4-.2-.4.8-2v-.3c0,0-1.2-.9-1.2-.9h-.7c0,0-.3-.1-.3-.1l-1,.7-1.4-.4h0s-1,0-1,0l-.5-.7h-1s-.2-.6-.2-.6l-.3-.8-.6-.3-.7-.2-.6-.9-1.5.7h-1.5c0-.1-.4-.3-.4-.3l-.7-.9-.5.4h0s-1-.9-1-.9l-1.3-.5-.4-1.4.3-.9.4-1.2.5-.6.3-.3v-.2s-.1-.3-.1-.3l-1.5-.9-1-.6-2.1-.4-1.6-1.8h0s-.2-.4-.2-.4l.7-.8.4-1.5-.3-1.4-.4-.6-1.4-1.3-.9.2h0c0,.1.1.8.1.8l.5,1.6-.5.5h-.2s-.6-.2-.6-.2l-1-1.6-1.3-.2-1.3-.6h-.2c0,.1-.3.5-.3.5l-1.4,1.9h-.4c0,0-.8-.5-.8-.5l-1.2.2-1.7,1.4h-.5c0,.1-1.3.1-1.3.1l-1.6-.4-1.3,1.1-1.6.7h-1.8c0,0-1.2-.6-1.2-.6l-1.5.5h-.4s-.3-.2-.3-.2l-.4-1.2-2.4-.7-1.4.6h0s-1,0-1,0l-.5.8-1.1.4-1.9-.2-.5-1.3-1.2-1.2v-.5s-1.9-1.2-1.9-1.2l-1.4.2h-.1s-1,.3-1,.3l-.8.3-.2.2v1.8s0,0,0,0v.2c-.1,0-.8.8-.8.8h-.2c0,0-.1,0-.1,0l-1.3-.4-1.3.3-2.2-.7h-.2s0,0,0,0l-1.6.8-1.3-.5-.6-.5h0s-.3-1.5-.3-1.5l-1-.7h-1.2s-2-.8-2-.8l-1.3.9-1.4,1h0s-1-1.1-1-1.1l-1.5-.5-1-.9h-1.2c0-.1-.5,0-.5,0l-.7.3-.7,1-2.3,4-1.8.9h-1c0-.1-.8-1.1-.8-1.1l-.7-.4h-1.7c0-.1-1.6.2-1.6.2h0s-.8-.9-.8-.9l1.2-3.4v-1s-.3-.4-.3-.4h0c0,0-1.7-1-1.7-1l-.6-1.3-.8-.7-.8-2.6-3.5-2.9-.8-.5h-.2c0,0-2.3,0-2.3,0l-.7.3-1.1.5h-.3s-.2,0-.2,0l-1.5-1.7-1.4-.3h-.1c0,0-1.4.9-1.4.9h-.8s-.2,0-.2,0l-4.6-2.6-5-.5-3.7-.8h-.3c0-.1-1.6-1.4-1.6-1.4l-1-.8-2.1-.5h0s0,0,0,0l-.2-.2-1.7-1.3-1-2.2h-.1c0-.1-1.3-1.5-1.3-1.5l-1-.2h-.6s-1.3.4-1.3.4l-.9.3h0s-2.3-.7-2.3-.7l-1-.3-2.6-.6-1.1.7-1.4.2-2-1.4h-1.9s0,0,0,0h0s-2,2.2-2,2.2h-.1c0,.1-2.4,1.4-2.4,1.4h-1.6c0,0-.7-.4-.7-.4l-2,.5-1,.5-1.2-.5-1.5-.6-2.3-2.2-1.1-.4h-.2c0,0-2.8-.1-2.8-.1l-1.7.3-1.6.8h-1.7s0,0,0,0l-.7-.7-.7-3-.2-.4h-.9c0,0,0,0,0,0l-.6-.6h-.6c0-.1-1.2-.3-1.2-.3l-6.5,1.7h-.6s-.2,0-.2,0l-1.6-.3-1.4-1.4-.7-.7-.4-.4-3.4-3.3-1.8-.4-3.3-1.7-2.7-.5h-.1s-.2,0-.2,0h-2.2c0,0-3-1.7-3-1.7l-1.6-.4h-.4s-1,.2-1,.2h-.2c0,0-.5.5-.5.5l-.4.4-.2.2-1,1.9-.3,1.9h0c0,0-.8,2.7-.8,2.7v.8s.4,3.7.4,3.7l-2.2.8-1.4.5-1.9,1.4h-.4c0,0-.2-.2-.2-.2l-.2-.6-.2-2.6-.9-1.7-.9-.4-2.5.5-1,.7-1.3.9-1.9-.3-3.8-.4-3.2-1.1-1.4-.5-.5-.2-.7-.2h-.8c0,0-.2.1-.2.1h-.2s-.8.4-.8.4l-2.8,1.7-.9.3h-.3s-1.8-1.3-1.8-1.3l-1.2-.5h-.3c0-.1-2.4-2.5-2.4-2.5l-1.2-1.9-.3-.2h-.3c0,0-1.6.5-1.6.5l-5.2,3.8-3.4,1.5h-1.9c0,0-2.5-1.4-2.5-1.4l-2.6-.9h-.3c0,0-1.1-.3-1.1-.3l-1.8-.3-2.6,1.2h-1.2c0-.1-4.2-3.5-4.2-3.5l-1.7-.6-4.2.5-1.1.6-1.1,1-1,.9-.4.2-1.1.6-1.2,1.4-1.3,1.2-1.9,1-1.2,1.6-.6-2-.9-1.5h0ZM554,447.6h0c0,0,0-.1,0-.1h0c0-.1,0-.2,0-.2h0s0,0,0,0h.2c0,.1,0,.2,0,.2h0c0,0,0,0,0,0h-.1c0,0,0,.1,0,.1h0s0,0,0,0h-.1s0-.1,0-.1h0ZM560.1,448.2v-.2s.1-.2.1-.2h0s.3,0,.3,0h0s0,.2,0,.2v.2c0,0-.2.2-.2.2h-.1c0,.1-.1.1-.1.1h-.1c0,0,0-.2,0-.2v-.2s0,0,0,0ZM560.5,449.8v-.3s0-.2,0-.2v-.3c.1,0,.2,0,.2,0l.2.2v.2c0,0,0,.4,0,.4v.2c0,0-.1,0-.1,0h-.1c0,0-.1-.2-.1-.2ZM638.4,395.5h0s0-.1,0-.1h0s0,0,0,0h0c0,0,0,0,0,0h0ZM659.5,399.3h0c0-.1,0-.3,0-.3h0c0,0,0-.1,0-.1h0c0-.1,0-.3,0-.3h0c0,0,0,0,0,0h0s0,0,0,0h.1c0,0,.3-.1.3-.1h0c0,0,.2,0,.2,0h0c0,0,0,.1,0,.1h0s0,.2,0,.2v.2s-.1.2-.1.2v.2s0,0,0,0h0s0,0,0,0h0c0,.1,0,.3,0,.3h0s0,0,0,0h0c0,0-.2-.1-.2-.1h0c0,0,0,0,0,0h0c0,0,0-.2,0-.2h0ZM660.9,397.6h0s0,0,0,0h0s0,0,0,0h0s0,0,0,0h0s0,0,0,0h0ZM662,398.8h-.1,0c0,0,.1,0,.1,0h0c0,0,0,0,0,0ZM663.1,399.7h0s0,0,0,0h0s0,0,0,0h0s0,0,0,0h0s0,0,0,0ZM665.1,393.3l-.2-.2h0c0-.1,0-.2,0-.2h.1c0,0,.2-.2.2-.2h.1s.2.1.2.1h0c0,.1,0,.2,0,.2h.1c0,.1,0,.2,0,.2h0c0,0-.2,0-.2,0h-.1s0,0,0,0h-.2s0,0,0,0ZM665.8,392.3h-.2s0-.2,0-.2h0c0,0,.1-.1.1-.1v-.2c0,0,.2,0,.2,0h.2s0,0,0,0h-.1c0,.1-.1.2-.1.2h0c0,0,0,.2,0,.2h-.1s0,0,0,0ZM669.8,393.5h0c0,0,0-.2,0-.2h0s0,0,0,0h0c0,0,0,.2,0,.2h0s0,0,0,0h0ZM663.5,399.9h0s0,0,0,0h0s0,0,0,0h0s0,0,0,0h0s0,0,0,0h0ZM682.7,398.3h0c0,0,0-.2,0-.2h0c0-.1,0-.2,0-.2h0c0,0,0-.1,0-.1h0s0,0,0,0h0c0,0,0-.1,0-.1h0c0,0,0-.2,0-.2h0s0,0,0,0h0s0,0,0,0h0c0,0,0,.2,0,.2v.5c-.1,0-.2,0-.2,0h-.1c0,.1,0,0,0,0h0c0,0,0,0,0,0ZM689.6,396.2h0s.1,0,.1,0h0c0,0-.1.2-.1.2h-.1s0-.1,0-.1h0c0,0,0,0,0,0ZM694.4,395.7h0c0,0,.1,0,.1,0h0s0,.1,0,.1h-.1s0,0,0,0h0c0,0,0,0,0,0ZM696,394.8l.8-.8.3-2.3h.4c0-.1,0-1,0-1l.4-.2.4-.9-.2-.7.4-1.8.5-1.1,1.1-.6,1.1.2.8.7,1.3.2.2.3,1.3-.2.8.8h.4c0,0,.6.7.6.7l-.3.9.9.4.3-.2,1,1.4h.4s-.4.6-.4.6v1.6c-.1,0-.7.9-.7.9v.3s.4,0,.4,0v.8c-.1,0-1,.6-1,.6l.4.3v.3c0,0,.5,0,.5,0l-.5.5.2.3.8-.3.4.2-.9.5-1.5-.7-1.5.2-1.1,1.1v1.1c0,0,.1-.2.1-.2v.2c0,0-.5.3-.5.3l.2.6,1.7.2v.4c0,0-.7.4-.7.4l.5.8h.9s1.2.9,1.2.9l.4-.9.6.7h.6c0-.1.4.4.4.4l-.2.4h-.9c0-.1-.2.1-.2.1v1.5s.5.5.5.5l-.4.5v.8c0,0,.9-.1.9-.1l-.7.6-.4,1-1.1.7-1.5-.2-1.6-2.1.5-1.2-1-1.8-1,.4-.2-.6-.8.5-.6.2-.4-.4-.7.4-.3.2-.5.7-.7-.8-.9,1.1-3.6.4-.7.5-1.8.2-1.4-.6-1.5-1.8-.2-2.6.4-.4h.5s.9-1.1.9-1.1l.7-.3.4-.9h1.1c0,0,.3-.5.3-.5l-.2-.2h.3c0,0,.1-.6.1-.6l3.3-2.7h0ZM704.5,398.2h-.1c0-.1,0-.3,0-.3h0s0,0,0,0h.2s0,.1,0,.1h0c0,.1-.1.2-.1.2h0s0,0,0,0h0ZM705.6,401.4h0c0,0,.2-.1.2-.1h.2c0,0,0,.1,0,.1h0c0,0,0,.2,0,.2h-.1c0,0-.3,0-.3,0h-.1c0,0,0-.2,0-.2ZM702.8,404.4l.2-.2h0s0,0,0,0h0c0,0,0,.2,0,.2h0c0,0-.1.1-.1.1h0c0-.1,0-.2,0-.2h0ZM700.4,404.4h0c0-.1,0-.3,0-.3h0c0-.1.2-.1.2-.1v.3c-.1,0-.2,0-.2,0h0s0,0,0,0ZM708.8,394.3h0c0-.1,0-.2,0-.2h0s.1,0,.1,0h0s0,.2,0,.2h0c0,0-.2.2-.2.2h0s0-.2,0-.2h0s0,0,0,0ZM715.3,396h0c0,0,0-.2,0-.2h0s0-.1,0-.1h0s0,0,0,0v.2c0,0,0,0,0,0h0s0,0,0,0h0s0,0,0,0ZM714.9,393.6l1.1-1.1.9-.2v.7c-.1,0,2.1.7,2.1.7l-.4,1-1.1-.5-1.3.8-.9-.7v-.7c-.1,0-.4,0-.4,0h0ZM726.9,387.4h0c0,0,0,0,0,0h0s0,0,0,0h0s0,0,0,0h0s0,0,0,0h0ZM726.9,388.4v-.7s.6,0,.6,0l.3.3-.3.6h.8c0,0,0,.6,0,.6l-.7.6-.4-.2v-.8c.1,0-.4-.3-.4-.3h0ZM701.5,372.4h0s0,0,0,0h0c0,0,0-.2,0-.2h0s0,0,0,0h0c0,0,0,.2,0,.2h0c0,0,0,0,0,0h0ZM703,373.9l.3-.7h1s-.2.8-.2.8h-1.1ZM710.2,367.4h0s0,0,0,0h0c0,0,0,.2,0,.2h-.1s0,0,0,0ZM710,369.1h-.1c0,0,0,0,0,0h0c0,0,0-.1,0-.1h0s0,.1,0,.1ZM714.7,370.7l.6-.7,1,.9-.2.2-.5-.3-.4.4-.5-.6ZM723.7,367.5l.2-.7,1.8.8-.2.7-1.4.4-1.9,1.7-.2-1,.3-.7-.5-.8.3-.4v-.8s.3.4.3.4v.5c-.1,0,.4.3.4.3h.7s.3-.4.3-.4ZM727,368.6h0s0,0,0,0h0s0,0,0,0Z"/>
  <g>
    <path class="st1" d="M522.8,213.4s11.6-2,18.3,8.3c6.7,10.4,25.7,36.3,25.7,36.3l23.9-15.7,10.1,12s-14.9,22.7-26.4,27.8c-11.5,5.1-26.3-7.5-26.3-7.5l-15.2-17.6-10.1-43.5Z"/>
    <g>
      <path class="st13" d="M549.5,255.8c-.5.7-11.1,39.5-19.9,44.1-3.1,1.6-39.7-9.4-39.7-9.4,0,0,1.5-12,2-12.2.5-.2,29.6,1.8,29.6,1.8l11.5-32.6,16.6,8.3Z"/>
      <path class="st13" d="M493.4,278.3s-2.9-5.4-4.1-6.7c-1.2-1.3-5.8-4.6-7-6.8,0,0-2,.2-1.3,2.3.7,2.1,2.5,4.8,3.6,5.8,1.1,1,.3,1.8-.8,1.7-1.1,0-8.1-2-8.1-2,0,0-7.6-3.4-8.6-2.9-1,.5-1,1.9-.4,2.4.4.4,6.7,3.9,6.7,3.9l3.5,1.2s-11.3-2.9-12.3-2.2c-1,.7-.8,1.5-.4,2.1.4.6,5.4,1.8,5.4,1.8l6.6,2.1-12.9-1.9s-1.2,0-1.4,1c-.2,1,1.1,1.9,1.1,1.9l13.1,3.2s-7.3-1.4-7.8-1c-.6.6-.5,1.3,0,1.6,1.1.6,7.6,2.2,7.6,2.2l12.6,2.3,6,1.5,2.5-12.4-3.5-1Z"/>
    </g>
    <g>
      <path class="st1" d="M499.3,286.1s3.1-5.3,4.4-6.5c1.3-1.2,6.1-4.3,7.3-6.5,0,0,2,.2,1.2,2.3-.8,2.1-2.7,4.7-3.8,5.6-1.1,1-.3,1.8.7,1.7,1.1,0,8.2-1.6,8.2-1.6,0,0,7.8-3.1,8.7-2.5,1,.6.9,1.9.3,2.4-.4.4-6.8,3.6-6.8,3.6l-3.6,1s11.4-2.4,12.4-1.7c1,.7.7,1.6.3,2.1-.4.6-5.5,1.6-5.5,1.6l-6.7,1.8,12.9-1.3s1.2,0,1.4,1.1c.1,1-1.2,1.8-1.2,1.8l-13.2,2.6s7.4-1.1,7.8-.6c.6.7.5,1.3,0,1.6-1.1.6-7.7,1.8-7.7,1.8l-12.7,1.7-6.1,1.2-1.9-12.5,3.6-.9Z"/>
      <path class="st1" d="M443.4,288.6c.5.7,7.7,16,10.5,18.1,2.8,2.1,54.5-9.1,54.5-9.1,0,0-1.5-12-2-12.2-.5-.2-46,3.8-46,3.8l-5.2-14.9-11.9,14.3Z"/>
    </g>
    <path class="st1" d="M429.1,254.8l-38.7-12.3-4.5,14.7s29,14.7,39.3,18.5c8.4,3.1,11.6,3.9,15.2.1,1.9-2.1,7.8-9.9,13.1-17.3l-14.7-15.1-9.7,11.4Z"/>
    <path class="st9" d="M301.5,219.9s-15.7,3.2-20.7,13.6c-5.4,11.1-23.9,33.6-23.9,33.6l-41.2-1.1-5.7,10.8s26.9,15.4,39.3,17.2c16.6,2.5,26.3-10.3,26.3-10.3l15.2-17.6,10.7-46.1Z"/>
    <g>
      <path class="st13" d="M427.9,255.9s2-5.8,3-7.2c1-1.4,5.1-5.4,5.9-7.8,0,0,2-.1,1.6,2-.4,2.2-1.7,5.1-2.7,6.3-.9,1.2,0,1.8,1,1.6,1-.2,7.7-3.2,7.7-3.2,0,0,7-4.5,8.1-4.2,1,.4,1.2,1.7.8,2.3-.3.4-6,4.9-6,4.9l-3.3,1.7s10.7-4.5,11.8-4.1c1.1.5,1,1.4.7,2-.3.6-5,2.6-5,2.6l-6.2,3.1,12.4-3.8s1.2-.2,1.6.8c.3,1-.8,2-.8,2l-12.5,5.1s7-2.5,7.5-2.1c.7.5.7,1.2.2,1.6-1,.8-7.2,3.3-7.2,3.3l-12.1,4.2-5.7,2.4-4.3-11.9,3.3-1.6Z"/>
      <path class="st9" d="M353.6,218.6s11.8-1.3,18.5,9.1c6.7,10.4,22.6,34.9,22.6,34.9l31.3-6.6,6.7,12.9s-20.6,13.2-32,18.2c-11.5,5.1-22-5.1-22-5.1l-14.8-19.2-10.3-44.3Z"/>
    </g>
    <g>
      <path class="st1" d="M384.7,282.9c-.5.7-7.7,16-10.5,18.1-2.8,2.1-38.1-7.5-38.1-7.5,0,0,1.4-11.6,1.9-11.8.5-.2,29.6,1.8,29.6,1.8l4.8-9.2,12.4,8.5Z"/>
      <path class="st1" d="M338.4,282s-2.6-5-3.7-6.1c-1.1-1.2-5.3-4.2-6.4-6.2,0,0-1.8.1-1.2,2.1.6,1.9,2.2,4.4,3.2,5.3,1,.9.2,1.6-.7,1.6-1,0-7.4-1.8-7.4-1.8,0,0-7-3.1-7.9-2.7s-.9,1.7-.4,2.2c.3.3,6.1,3.6,6.1,3.6l3.2,1.1s-10.3-2.7-11.2-2.1c-.9.6-.7,1.4-.4,1.9.3.5,4.9,1.7,4.9,1.7l6,2-11.8-1.8s-1.1,0-1.3.9c-.2.9,1,1.7,1,1.7l11.9,3s-6.7-1.3-7.1-.9c-.6.6-.5,1.2,0,1.5,1,.6,7,2,7,2l11.5,2.1,5.5,1.4,2.3-11.4-3.2-1Z"/>
    </g>
    <g>
      <path class="st4" d="M262.2,257.6s10.1-1.8,15.9,7.2c5.8,9,22.3,31.4,22.3,31.4l20.7-13.6,8.8,10.4s-12.9,19.7-22.8,24.1-22.8-6.5-22.8-6.5l-13.2-15.3-8.8-37.7Z"/>
      <path class="st1" d="M322.2,281.9s.5-5.5,1.1-7c.6-1.5,3.3-5.9,3.5-8.2,0,0,1.7-.6,1.9,1.4.2,2-.4,4.9-1,6.1-.6,1.2.4,1.6,1.3,1.1.9-.4,6.1-4.5,6.1-4.5,0,0,5.2-5.5,6.2-5.5,1,0,1.5,1.2,1.2,1.9-.2.4-4.2,5.6-4.2,5.6l-2.5,2.2s8.4-6.4,9.5-6.2c1.1.2,1.2,1,1.1,1.6-.1.6-3.9,3.4-3.9,3.4l-4.8,4.1,10.1-6.1s1-.5,1.5.3c.5.8-.3,2-.3,2l-9.8,7.3s5.6-3.8,6.2-3.5c.7.3.9.9.6,1.3-.7.9-5.6,4.5-5.6,4.5l-9.7,6.3-4.5,3.4-6.5-9.5,2.6-2.1Z"/>
    </g>
    <g>
      <g>
        <path class="st4" d="M314.2,190.8c-1.9-4.3-3.8-8.7-4.9-13.3-1.1-4.6-1.5-9.5-.3-14.1.2-.7,1.9-5.4,2.6-5.4.5,0-.4,4.3,0,4.7,2.9,4,4.1,9,4.1,13.9,0,4.9-.5,9.4-1.4,14.2"/>
        <path class="st13" d="M343.3,214.3c-.3-3.3-.5-6-.5-6,0,0,11.3-2.3,11-13.7-.2-5.5-1.5-16.8-2.8-27.1-1.4-11-11-19.1-22.1-18.6h-1.1c-11.8,1.3-17.4,12-15.9,23.8l4.2,41.5,9,8.8c7.2,7,19.2,1.3,18.2-8.7h0Z"/>
        <path class="st5" d="M342.8,208.3s-7.2.8-15.1-3.7c0,0,4,8.1,15.3,6.6l-.3-2.9Z"/>
        <path class="st13" d="M313.3,181.2c-.2,0-8-2-7.3,5.8.6,7.8,8.3,5.6,8.3,5.4,0-.2-1-11.2-1-11.2Z"/>
        <path class="st5" d="M311.6,189.6s-.1.1-.3.2c-.2.1-.6.2-1,0-.8-.2-1.6-1.5-1.8-2.9,0-.7,0-1.4.2-2,.2-.6.5-1,.9-1.1.4-.1.7,0,.8.3.1.2,0,.4.1.4,0,0,.2-.1,0-.5,0-.2-.1-.3-.3-.5-.2-.1-.5-.2-.8-.1-.6,0-1.1.7-1.3,1.3-.3.6-.4,1.4-.3,2.2.2,1.6,1.1,3,2.2,3.2.6.1,1-.1,1.2-.3.2-.2.3-.4.2-.4Z"/>
        <path class="st4" d="M344.9,155.1c1.2-.8-2.9-4.6-6.2-5.7-4.9-1.7-12.1-2.4-16.3-.8-5.1,1.9-9.2,4.9-11.4,9.8-2.2,5-2.7,10.6-2.1,15.9.2,1.6.5,3.3,1.5,4.7,1.2,1.6,3.4,2.5,3.5,4.9,0,.9.4,1.7,1,2.3,1.6,1.4,3.2-.2,3.9-1.7,1.4-3.2,1.3-6.9,1.2-10.4-.1-2.5-.2-5-1.1-7.4-.5-1.3-1.2-2.4-1.6-3.7-.4-1.3-.5-2.8.2-3.9.1-.2.3-.4.6-.7,2-2.1,5.1-3,7.9-2.2,4.5,1.2,12.2,2.8,14,1.2,2.6-2.4,3.2-3.8,3.2-3.8l1.7,1.5Z"/>
      </g>
      <g>
        <path class="st4" d="M352,487.5l-.6,19.9s21,7.2,21.3,10.9l-40.4.5-.5-31,20.2-.2Z"/>
        <path class="st8" d="M338.9,505.8c-.8.2-1.3,1.1-1.1,1.8.2.8,1.1,1.3,1.9,1.1.8-.2,1.5-1.2,1.2-1.9-.3-.7-1.4-1.3-2.1-.9"/>
        <path class="st3" d="M332.3,518.7v-3.1c0,0,38.8.7,38.8.7,0,0,1.8.7,1.6,1.9l-40.4.5Z"/>
        <path class="st2" d="M352.1,507.1c0,.2-1,.3-2,.9-1,.6-1.5,1.4-1.7,1.3-.2,0,.1-1.2,1.3-1.9,1.2-.7,2.4-.5,2.3-.4Z"/>
        <path class="st2" d="M356.4,508.8c0,.2-.8.5-1.5,1.3-.7.8-.8,1.7-1,1.6-.2,0-.3-1.1.5-2.1.8-1,2-1.1,2-.9Z"/>
        <path class="st2" d="M358.8,513.6c-.2,0-.5-.9,0-1.9.5-1,1.4-1.5,1.5-1.3.1.2-.5.7-.9,1.6-.4.8-.5,1.6-.7,1.7Z"/>
        <path class="st2" d="M351.7,502.6c0,.2-1,0-2.1,0-1.1,0-2,.4-2.1.3-.1-.1.7-.8,2-.9,1.3,0,2.2.5,2.1.6Z"/>
      </g>
      <g>
        <path class="st4" d="M303,486.9l-1.5,24,4.6,19.3c.3,1.4-.6,2.8-2.1,3h0c-.8.1-1.7-.1-2.2-.7-3.7-3.6-17.3-17.1-17.1-18.9.2-2-.2-25.5-.2-25.5l18.6-1.3Z"/>
        <path class="st3" d="M304,533.3l-19.3-21.2v1c0,.9.2,1.7.8,2.4,1.5,1.8,5.9,6.9,16.2,17,.6.6,1.5.9,2.3.7h0Z"/>
        <g class="st6">
          <path class="st2" d="M290.2,504.5c.6.4.8,1.4.4,2-.4.6-1.4.8-2,.4-.6-.4-.9-1.5-.4-2.1.5-.6,1.7-.7,2.2-.1"/>
        </g>
        <path class="st2" d="M298.6,522.6c.1,0,.8-1.2,2.3-1.8,1.5-.7,2.9-.3,2.9-.4,0,0-.3-.3-.9-.4-.6-.1-1.4,0-2.3.3-.8.4-1.4.9-1.7,1.4-.3.5-.4.8-.3.9Z"/>
        <path class="st2" d="M300.3,525.9c.1.1,1-.6,2.3-1,1.3-.3,2.4,0,2.5-.2,0-.1-1.1-.7-2.6-.3-1.5.4-2.3,1.4-2.1,1.5Z"/>
        <path class="st2" d="M295.5,518.4c.1.1,1.4-1.1,3.4-1.7,2-.7,3.8-.6,3.8-.7,0-.1-1.8-.5-4,.2-2.1.7-3.3,2.1-3.2,2.2Z"/>
        <path class="st2" d="M295.3,511c0,.1,1.5-.4,3.3-.4,1.8,0,3.2.5,3.3.3,0-.1-1.3-.9-3.3-.8-1.9,0-3.4.8-3.3.9Z"/>
        <path class="st2" d="M295.5,503.9c0,.1,1.5-.6,3.4-.5,1.9.1,3.2,1,3.3.9,0,0-.2-.4-.8-.7-.6-.3-1.5-.7-2.5-.7-1,0-2,.1-2.6.4-.6.3-.9.5-.9.6Z"/>
        <path class="st2" d="M298.9,502.1s.1-.3,0-.9c0-.6-.2-1.4-.7-2.4-.3-.5-.5-1-1.2-1.4-.3-.2-.9-.1-1.2.2-.3.3-.4.7-.4,1.1,0,1.5,1.3,3.1,3.1,3.3,1.8.2,3.5-.7,4.2-2,.2-.3.3-.8.1-1.2-.2-.4-.7-.6-1-.5-.8,0-1.2.5-1.7.8-.9.6-1.5,1.3-1.8,1.8-.3.5-.4.8-.4.8,0,0,.7-1.2,2.4-2.3.4-.3,1-.6,1.5-.6.3,0,.5,0,.6.3,0,.2,0,.5-.1.8-.6,1.1-2.2,1.9-3.7,1.7-1.5-.2-2.7-1.6-2.7-2.8,0-.3.1-.6.3-.8.2-.2.4-.2.6-.1.5.2.8.7,1,1.1,1,1.8.8,3.2.9,3.1Z"/>
      </g>
      <g>
        <path class="st3" d="M361.4,327.2s3.8,10.6,3.4,23.8c-.2,5.1-11.5,147-11.5,147l-26.2,1.5-.2-132.8-2.1.5s-11.1,57.3-11.7,66.5c-.6,8.3-9.2,68.6-9.2,68.6l-23.9,1.6,3.1-79.4,4.6-76.2,2.1-22.2,71.6,1Z"/>
        <path class="st4" d="M325.4,353.5s.3.2,1,.5c.7.3,1.7.7,3,.9.7,0,1.4.1,2.2,0,.8-.2,1.6-.5,2.3-1.1.7-.6,1.1-1.5,1.4-2.4.3-.9.4-1.9.6-2.8.7-3.8,1.1-7.4,1.3-9.9.1-1.3.2-2.3.2-3,0-.7,0-1.1,0-1.1,0,0-.1.4-.2,1.1-.1.8-.2,1.8-.4,3-.3,2.5-.8,6-1.5,9.9-.3,1.9-.5,3.8-1.7,5-1.2,1.1-2.9,1.3-4.2,1.2-1.3-.1-2.3-.5-3-.7-.7-.2-1.1-.4-1.1-.3Z"/>
        <path class="st4" d="M332.2,335.3s-.2-.1-.5-.1c-.3,0-.9,0-1.3.5-.5.4-1,1-1,1.8,0,.8.7,1.7,1.6,1.9.9.3,2,0,2.5-.6.5-.7.6-1.4.4-2-.2-.6-.5-1-.8-1.1-.3-.2-.5-.2-.5-.2,0,0,.7.4.9,1.4,0,.5,0,1.2-.4,1.6-.4.5-1.3.7-2,.4-.8-.2-1.3-.9-1.3-1.5,0-.6.3-1.2.7-1.5.8-.7,1.6-.5,1.6-.6Z"/>
      </g>
      <g>
        <g>
          <g>
            <path class="st9" d="M359.8,238.4l-4.2-20-11.2-1.3-1.3-5.9-5.9,5.6-23.1-10.8-2.1,8.7-20.4,9-.7,55.6v23.1c-.1,0-2.8,23.5-2.8,23.5-.3,3,0,5,.9,7.8l58.7,1c5.5-.3,9.5-.9,12.2-1.4,2.9-.5,5-2.8,5.1-5.6,1-18.5,1.1-74,1.1-74l-6.4-15.3Z"/>
            <path class="st4" d="M349,332.6s0,0,0-.3c0-.2,0-.5,0-.8,0-.8,0-1.8,0-3.2,0-2.8.1-6.8.2-11.7,0-9.9.1-23.6-.5-38.6-.3-7.5-.8-14.7-1.7-21.2-.9-6.5-2.2-12.2-3.4-17.1-1.2-4.8-2.2-8.7-3-11.3-.4-1.3-.7-2.3-.9-3.1,0-.3-.2-.6-.2-.8,0-.2,0-.3-.1-.3,0,0,0,0,0,.3,0,.2.1.5.2.8.2.8.4,1.8.8,3.1.7,2.7,1.6,6.6,2.8,11.4,1.1,4.8,2.3,10.6,3.2,17,.9,6.5,1.3,13.6,1.6,21.2.6,15.1.6,28.7.6,38.6,0,4.9,0,8.9,0,11.7,0,1.3,0,2.4,0,3.2,0,.3,0,.6,0,.8,0,.2,0,.3,0,.3Z"/>
            <path class="st4" d="M331.5,248.1s-.4,0-1.3,0c-1,0-2.3.2-3.9.4-3.5.3-8.4.8-14.3,1.4h-.3s0,.3,0,.3c.7,6.5,1.5,14.4,2.4,22.8v.2s.1,0,.1,0c.7.5,1.4.9,2.2,1.4,1.3.8,2.7,1.6,4.1,2.2,1.4.6,2.8,1.2,4.4,1.3,1.6,0,3-.5,4.3-1.1,1.3-.7,2.4-1.5,3.4-2.4.5-.5,1-.9,1.5-1.4.2-.2.5-.5.7-.8.2-.3.3-.6.4-1,.3-1.3.3-2.6.2-3.8-.1-2.4-.5-4.6-.8-6.7-.7-4-1.5-7.2-2.1-9.5-.3-1.1-.5-2-.7-2.5-.2-.6-.3-.9-.3-.9,0,0,0,.3.2.9.1.6.3,1.5.6,2.6.5,2.2,1.2,5.5,1.9,9.5.3,2,.6,4.2.7,6.6,0,1.2,0,2.4-.3,3.6-.2.6-.4,1.1-.9,1.5-.5.5-1,.9-1.5,1.3-1,.9-2.1,1.7-3.3,2.3-1.2.6-2.6,1.1-4,1-1.4,0-2.8-.6-4.1-1.2-1.4-.6-2.7-1.4-4-2.2-.7-.5-1.5-.9-2.1-1.4v.2c-.8-8.4-1.7-16.3-2.4-22.8l-.2.3c5.8-.7,10.6-1.2,14.1-1.7,1.7-.2,3-.4,4-.5.4,0,.8-.1,1.1-.1.2,0,.4,0,.4,0Z"/>
            <path class="st9" d="M323.3,210.7c-6.8-3.4-9.4-4-9.4-4l-1.8,9.1,25.3,11.8v-10.6s-7.5-3-14.2-6.2Z"/>
            <path class="st4" d="M312.3,256.1c0,.2,4.7-.2,10.4-.8,5.7-.6,10.3-1.3,10.3-1.4,0-.2-4.7.2-10.4.8-5.7.6-10.3,1.3-10.3,1.4Z"/>
            <g class="st7">
              <path d="M334.5,272.3c-1.1,1.9-2,4.4-3.5,6-1.5,1.6-3.4,2.8-5.6,3-1.9.2-3.8-.5-5.4-1.4-2.6-1.5-4.3-4.1-5.6-6.9-.2-.2,3.8,2.3,5.9,3.3,2.1,1.1,3.6,1.4,6,1.1,3.1-.3,5.8-3,8.1-5.1"/>
            </g>
            <g class="st7">
              <polygon points="337.4 218.1 339.5 231 314.6 216.6 337.4 227.6 337.4 218.1"/>
            </g>
          </g>
          <path class="st12" d="M342.1,230.4s6.7,24.1,9.9,53.8c1.3,12.6,2.5,29.3,2.5,29.3l-5.4,7.1-8.9-7.4s-.7-35.5-1.5-47.4c-.7-9.8.1-34.8.1-34.8l3.2-.6Z"/>
          <polygon class="st12" points="337.5 221.9 339.5 220.6 341.9 224.6 342.1 230.4 338.9 231.1 337.5 227.7 337.5 221.9"/>
          <path class="st4" d="M337.2,216.9s.5.8,1.3,2.1c.8,1.3,1.9,3.1,3,5.2,0,.2.2.3.2.5l.2.3v-.3c1-2,1.7-3.9,2.1-5.3.2-.7.3-1.2.4-1.6,0-.4.1-.6,0-.6,0,0-.3.8-.7,2.2-.4,1.3-1.1,3.2-2,5.2h.3c0-.2-.2-.3-.3-.5-1.1-2.1-2.2-3.9-3.1-5.2-.4-.6-.8-1.1-1.1-1.5-.3-.3-.4-.5-.4-.5Z"/>
          <path class="st4" d="M311.9,215.3s.1,0,.3.2c.3.1.6.3,1,.5.9.4,2.2,1.1,3.7,1.8,3.2,1.5,7.5,3.7,12.3,6.1,2.9,1.4,5.7,2.8,8.1,3.9h.2c0,.1,0-.1,0-.1,0-3.1-.1-5.7-.1-7.5,0-.9,0-1.6,0-2.1,0-.5,0-.8,0-.8,0,0,0,.3,0,.8,0,.5,0,1.2,0,2.1,0,1.9,0,4.5,0,7.5h.2c-2.4-1.3-5.1-2.6-8.1-4.1-4.8-2.4-9.1-4.5-12.3-6-1.6-.7-2.9-1.3-3.8-1.7-.4-.2-.8-.3-1-.4-.2,0-.4-.1-.4-.1Z"/>
          <path class="st4" d="M339.5,231.7c0,0,.6-.2,1.2-.6.6-.4,1.1-.8,1-.9,0,0-.6.2-1.2.6-.6.4-1.1.8-1,.9Z"/>
          <path class="st4" d="M338.9,230c0,0,.7-1.3,1.4-3,.7-1.7,1.2-3.1,1.1-3.2,0,0-.7,1.3-1.4,3-.7,1.7-1.2,3.1-1.1,3.2Z"/>
        </g>
        <path class="st4" d="M366.6,234.4s0,.2,0,.6c0,.4,0,1,0,1.6,0,1.4.1,3.5.1,6,0,5.1,0,12.1-.3,19.9-.2,7.8-.4,14.8-.4,19.9,0,2.5,0,4.5,0,6,0,.7,0,1.2,0,1.6,0,.4,0,.6,0,.6,0,0,0-.2,0-.6,0-.4,0-1,0-1.6,0-1.4-.1-3.5-.1-6,0-5.1,0-12.1.2-19.9.2-7.8.4-14.8.4-19.9,0-2.5,0-4.5,0-6,0-.7,0-1.2,0-1.6,0-.4,0-.6,0-.6Z"/>
      </g>
      <path class="st9" d="M308.4,172.6l11.5-1.8s-.3-2.1-.6-2.9c-.3-.8-11.1,1.4-11.1,1.4,0,0,.1,2.9.2,3.3Z"/>
      <path class="st4" d="M286.1,241.7c.1,0,1.4,5.5,2.8,12.4,1.4,6.9,2.4,12.5,2.3,12.5-.1,0-1.4-5.5-2.8-12.4-1.4-6.9-2.4-12.5-2.3-12.5Z"/>
    </g>
    <g>
      <path class="st3" d="M529.6,260.9c0,0,0-.1,0-.3,0,0,0,.2,0,.3Z"/>
      <path class="st3" d="M529.6,261s0,0,0,0h0Z"/>
      <path class="st3" d="M529.6,260.9s0,0,0,0c0,0,0,0,0,0Z"/>
    </g>
    <g>
      <path class="st10" d="M216.4,266.2l-6.4,2.9s5.6-35.2,7-44c2.2-14.2,8.2-30.4,28.5-28.7,0,0,15.3,1.2,19.7,12.3,2.4,6,2.5,22.1,3,40.6l.4,3.2c1.8,8,2.1,13.7,4.4,21.6,3,10.3,3,30.2,1,42l-17,1.7-40.4-51.4Z"/>
      <g>
        <polygon class="st1" points="223.7 483.6 218 514 232.2 515.8 241.1 486.8 223.7 483.6"/>
        <g>
          <path class="st3" d="M233.8,510.2s-11.2,4.9-14.8-1.9l-1.8,2.6-9.6,19.3c-.6,1.2-.3,2.8.9,3.6.9.6,2.1.6,3,0,4.8-3,22.3-14,22.6-15.9l.9-5c.2-1-.3-2.1-1.2-2.7h0Z"/>
          <g class="st6">
            <path class="st2" d="M209,533.9l25.4-17.8-.2,1.1c-.1,1.2-.7,1.6-1.5,2.2-2.1,1.9-7.9,6-21.1,14.3-.8.5-1.7.6-2.6.2h0Z"/>
          </g>
          <g class="st6">
            <path class="st2" d="M232,512.2c-.8.3-1.2,1.2-.9,2,.3.7,1.3,1.2,2,.9.8-.3,1.3-1.4.9-2.1-.4-.7-1.6-1.2-2.2-.7"/>
          </g>
          <path class="st4" d="M217.3,523.9c-.2,0-.5-1.4-1.9-2.5-1.4-1.1-2.9-1-2.9-1.2,0,0,.4-.2,1-.2.6,0,1.5.3,2.3.9.8.6,1.3,1.3,1.5,1.9.2.6.2,1,0,1Z"/>
          <path class="st4" d="M214.8,527c-.1,0-.8-.9-2.1-1.6-1.3-.7-2.5-.7-2.5-.8,0-.1,1.3-.4,2.8.3,1.5.8,2,2,1.8,2.1Z"/>
          <path class="st4" d="M221.7,520.2c-.1,0-1.2-1.5-3.1-2.6-1.9-1.2-3.8-1.5-3.7-1.7,0-.1,2-.1,4.1,1.2,2.1,1.3,2.9,3.1,2.8,3.1Z"/>
          <path class="st4" d="M223.4,514c-.1.1-1.4-.7-3.3-1.2-1.9-.5-3.5-.3-3.5-.5,0-.1,1.6-.6,3.6,0,2,.5,3.3,1.6,3.2,1.7Z"/>
          <path class="st4" d="M219,512.6s0-.4.3-.9c.3-.6.8-1.4,1.7-2.1.5-.3,1-.8,1.8-.9.4,0,.9.2,1.1.7.2.4.1.9,0,1.3-.6,1.5-2.6,2.5-4.5,2-1.9-.5-3.1-2.1-3.3-3.8,0-.4,0-.9.4-1.2.4-.3.9-.3,1.3-.1.7.4,1,1,1.3,1.5.6,1,.8,1.9,1,2.6.1.6,0,1,0,1-.1,0-.2-1.4-1.4-3.4-.3-.5-.7-1-1.2-1.3-.3-.1-.5-.1-.7,0-.2.2-.2.5-.2.8.2,1.3,1.3,2.8,2.9,3.2,1.6.4,3.3-.4,3.8-1.7.1-.3.2-.6,0-.9,0-.2-.3-.4-.6-.4-.6,0-1.1.4-1.5.7-1.8,1.4-2.2,2.8-2.3,2.7Z"/>
        </g>
      </g>
      <g>
        <polygon class="st1" points="249.1 481.4 254.8 511.8 240.6 513.5 231.7 484.5 249.1 481.4"/>
        <g>
          <path class="st3" d="M239,507.9s11.2,4.9,14.8-1.9l1.8,2.6,9.6,19.3c.6,1.2.3,2.8-.9,3.6-.9.6-2.1.6-3,0-4.8-3-22.3-14-22.6-15.9l-.9-5c-.2-1,.3-2.1,1.2-2.7h0Z"/>
          <g class="st6">
            <path class="st2" d="M263.8,531.7l-25.4-17.8.2,1.1c.1,1.2.7,1.6,1.5,2.2,2.1,1.9,7.9,6,21.1,14.3.8.5,1.7.6,2.6.2h0Z"/>
          </g>
          <g class="st6">
            <path class="st2" d="M240.8,510c.8.3,1.2,1.2.9,2-.3.7-1.3,1.2-2,.9-.8-.3-1.3-1.4-.9-2.1.4-.7,1.6-1.2,2.2-.7"/>
          </g>
          <path class="st4" d="M255.5,521.6c.2,0,.5-1.4,1.9-2.5,1.4-1.1,2.9-1,2.9-1.2,0,0-.4-.2-1-.2-.6,0-1.5.3-2.3.9-.8.6-1.3,1.3-1.5,1.9-.2.6-.2,1,0,1Z"/>
          <path class="st4" d="M258,524.7c.1,0,.8-.9,2.1-1.6,1.3-.7,2.5-.7,2.5-.8,0-.1-1.3-.4-2.8.3-1.5.8-2,2-1.8,2.1Z"/>
          <path class="st4" d="M251.1,517.9c.1,0,1.2-1.5,3.1-2.6,1.9-1.2,3.8-1.5,3.7-1.7,0-.1-2-.1-4.1,1.2-2.1,1.3-2.9,3.1-2.8,3.1Z"/>
          <path class="st4" d="M249.4,511.8c.1.1,1.4-.7,3.3-1.2,1.9-.5,3.5-.3,3.5-.5,0-.1-1.6-.6-3.6,0-2,.5-3.3,1.6-3.2,1.7Z"/>
          <path class="st4" d="M253.8,510.3s0-.4-.3-.9c-.3-.6-.8-1.4-1.7-2.1-.5-.3-1-.8-1.8-.9-.4,0-.9.2-1.1.7-.2.4-.1.9,0,1.3.6,1.5,2.6,2.5,4.5,2,1.9-.5,3.1-2.1,3.3-3.8,0-.4,0-.9-.4-1.2-.4-.3-.9-.3-1.3-.1-.7.4-1,1-1.3,1.5-.6,1-.8,1.9-1,2.6-.1.6,0,1,0,1,.1,0,.2-1.4,1.4-3.4.3-.5.7-1,1.2-1.3.3-.1.5-.1.7,0,.2.2.2.5.2.8-.2,1.3-1.3,2.8-2.9,3.2-1.6.4-3.3-.4-3.8-1.7-.1-.3-.2-.6,0-.9,0-.2.3-.4.6-.4.6,0,1.1.4,1.5.7,1.8,1.4,2.2,2.8,2.3,2.7Z"/>
        </g>
      </g>
      <g>
        <path class="st1" d="M248.1,201.1l-1.3-1.3-14.2,5.5c-2,0-3.7,1.7-3.8,3.8l-.4,46c0,3.1.5,5.8,2.4,8.3l2,2.6c4.5,6,13.8,5.6,17.4-.9.3-.5.4-.9.5-1.2,0-.4.2-.7.2-1,.5-3.7.5-6.9.5-6.9.3-4.1.4-5.7.4-5.7,0,0,8.7-.9,11.1-12,1.2-5.5,1.1-13.1.8-20.6-.3-10.4-7.5-16.7-15.8-16.8Z"/>
        <path class="st0" d="M251.9,250.5s-7.6,0-14.7-4.9c0,0,3.3,8,14.6,7.6l.2-2.7Z"/>
        <path class="st10" d="M228.9,228.9s7.9,2.5,12.6-16.9c1.6-6.7,7.8-12,7.8-12l-2.5-.8s-15.7,4.2-15.9,4.4c-.3.2-4,8-4,8l2,17.3Z"/>
      </g>
      <polygon class="st12" points="204.4 385.8 224.3 473.8 235.4 507.1 252.9 502.1 244.3 386.6 204.4 385.8"/>
      <path class="st4" d="M218,322s-11.3,27.4-12.4,36.6c-1.1,9.2-2.5,27.1-2.5,27.1l72.1,1.8s3.3-13.7,0-39.8c-1.6-12.6-6.5-22-7.3-24.1-.7-2.1,4.6-38.7,4.6-38.7l-.6-22.5-8.3-4.9h-11.9c-6.5,8.1-14.8,4.1-23.4-.3-3.3-1.7-16,7.6-16,7.6,0,0-.2,19.5,1.8,32.4,1.8,12.2,3.9,24.9,3.9,24.9Z"/>
      <g>
        <path class="st1" d="M197.4,363.1c0,.3.2,2.1,1.9,4,1.7,1.9,2.6,5.5,2.6,5.5,0,0,1.4,7.7,1.7,10.2s.3,4.8-1.6,4.3c-2-.5-2.6-2-2.9-6.5l-1.1-2.4-1.1,1.8-.3,7.3s4.9,4.8,4.6,6.2c-.4,1.4-1.3,1.1-1.3,1.1l-.8.8-7.6-5.5-2.7-9.7,1-12.4v-9.7c.1,0,8.3-1,8.3-1l-.5,6Z"/>
        <path class="st4" d="M217.5,261.8s-14.2,4.6-16.1,13-4.7,34.3-5.3,37.8c-.6,3.5-3.2,9.2-4.9,19.8-1.9,12.2-3.7,29.1-3.7,29.1l11.2.8s6.1-14.7,9.3-26c3.1-11.1,4.7-15.2,6.2-21.2,2.3-8.9,2.4-16.6,2.4-16.6l.9-36.7Z"/>
      </g>
      <path class="st13" d="M211,272.4s1.9-1.8.9-2.7c-1-.9-4.7-1-4.7-1,0,0,3.7-1.6,4-3.8s-.7-2.9-1.4-2.5c-.7.4-2.6,2.4-4.1,3.3-1.4.9-3.8,3.2-3.8,3.2,0,0-2,1.5-.4,3.3,0,0-2.8,2.2-1.3,3.7,0,0-2.3,1.4-1.3,3.3l.7,1.2s-2,1.2.1,3.6l3.5-3.4s3.2,0,3.5-1.3c.3-1.3.2-2.2.2-2.2,0,0,3.9-.7,4.4-2,.4-1.4-.3-2.8-.3-2.8Z"/>
      <path class="st4" d="M198.7,302.9c.2.3.4.6.6.9-.4,0-.6-.5-.6-.9Z"/>
      <path class="st10" d="M234.2,283.3c1.5-5.6,3.8-11.2,3.7-17-.1-5.6-2.4-10.8-4.2-16.1s-3-11.2-1-16.4c1.1-2.8,3-5.2,4.5-7.9,1.5-2.7,12.3-23.2,11.3-26.1l-28.6,13c-3.3,18.1-5,47.7-3.6,63.9.4,5,4.2,28.2,6.7,32.5.8,1.3,7.9,2.8,7.9,2.8,0,0,.5-4.6.5-4.3,0,.3,1.2,5.9,1.5,6.2,2,1.7,5.1,4,7.3,3.6-3.1-4.9-7.5-28.6-6-34.2Z"/>
      <g>
        <path class="st12" d="M237.7,386.6c-.9,4.4-8.8,36.3-8.4,48.7.4,12.4-6.1,46.7-7,51.8-1.1,6.5-2.9,19.6-2.9,19.6l15.1,1.7s18.9-46.8,20.6-60.2c1.7-13.4,3.9-21.3,7-26.5,3.1-5.2,13.1-34.2,13.1-34.2"/>
        <path class="st3" d="M275.2,387.6s0,.2-.2.6c-.1.4-.3,1-.6,1.8-.6,1.6-1.4,4-2.4,7-1.1,3-2.4,6.7-4,11-.8,2.1-1.7,4.4-2.6,6.9-.5,1.2-1,2.4-1.5,3.7-.3.6-.6,1.3-.9,1.9-.3.6-.7,1.3-1,1.9-1.4,2.5-2.4,5.4-3.3,8.4-.9,3-1.5,6.2-2.1,9.6-.3,1.7-.6,3.4-.8,5.1-.1.9-.2,1.7-.4,2.6-.2.9-.3,1.8-.5,2.7-.8,3.6-1.8,7.2-3,10.8-2.3,7.3-5,14.9-7.9,22.8-2.9,7.8-6,15.9-9.3,24.2v.2c0,0-.3,0-.3,0-1.4-.2-2.9-.3-4.4-.5-3.7-.4-7.3-.8-10.7-1.2h-.3s0-.3,0-.3c.6-4.2,1.2-8.4,1.9-12.5.3-2,.6-4.1.9-6.1.3-2,.7-4,1-6,1.4-7.9,2.7-15.4,3.8-22.6,1-7.2,2-14.1,2.3-20.5.1-1.6,0-3.2,0-4.7,0-1.6.1-3.1.2-4.6.3-3,.7-5.8,1.1-8.5,1.7-10.8,3.7-19.4,5.1-25.3.7-2.9,1.2-5.2,1.6-6.8.2-.8.3-1.3.4-1.8,0-.4.2-.6.2-.6,0,0,0,.2-.1.6,0,.4-.2,1-.4,1.8-.3,1.6-.9,3.9-1.5,6.8-1.3,5.9-3.2,14.5-4.9,25.4-.4,2.7-.8,5.5-1.1,8.5,0,1.5-.2,3-.2,4.6,0,1.5,0,3.2,0,4.8-.3,6.5-1.2,13.3-2.3,20.6-1.1,7.2-2.4,14.8-3.8,22.7-.3,2-.7,3.9-1,6-.3,2-.6,4-.9,6.1-.6,4.1-1.2,8.2-1.8,12.5l-.2-.3c3.4.4,7,.8,10.7,1.2,1.5.2,3,.3,4.4.5l-.3.2c3.3-8.2,6.4-16.3,9.3-24.2,2.9-7.8,5.6-15.4,7.9-22.7,1.2-3.6,2.2-7.2,3-10.8.2-.9.3-1.8.5-2.6.1-.9.2-1.8.4-2.6.3-1.7.5-3.5.8-5.1.6-3.4,1.3-6.6,2.2-9.6.9-3,1.9-5.9,3.4-8.4.4-.6.7-1.3,1-1.9.3-.6.6-1.3.9-1.9.5-1.3,1.1-2.5,1.5-3.7,1-2.4,1.9-4.7,2.7-6.8,1.6-4.3,3-8,4.1-11,1.1-3,1.9-5.4,2.5-7,.3-.8.5-1.4.7-1.8.2-.4.2-.6.2-.6Z"/>
      </g>
      <path class="st4" d="M269.2,270.9s.2.3.4,1c.2.6.5,1.5.7,2.7.6,2.3,1.1,5.5,1.4,9,.3,3.6.2,6.8,0,9.2-.1,1.2-.2,2.1-.3,2.8-.1.6-.2,1-.2,1,0,0,0-1.4.2-3.8.1-2.3.2-5.5,0-9.1-.3-3.5-.8-6.7-1.3-9-.5-2.3-.8-3.7-.7-3.7Z"/>
      <path class="st4" d="M211.1,279.5s.1.5.3,1.5c.2,1.1.4,2.5.6,4.1.6,3.6,1.3,8.4,2.2,13.7.9,5.3,1.7,10.1,2.3,13.6.3,1.7.5,3.1.7,4.1.2,1,.3,1.5.2,1.5,0,0-.2-.5-.4-1.5-.2-1-.6-2.4-.9-4.1-.7-3.5-1.6-8.3-2.5-13.6-.9-5.3-1.6-10.2-2-13.7-.2-1.8-.4-3.2-.5-4.2,0-1,0-1.5,0-1.5Z"/>
      <path class="st4" d="M248.8,325.9c0,0-1.1.3-2.8.6-1.7.3-4.2.7-6.9,1-2.7.3-5.1.5-6.9.7-1.8.1-2.9.1-2.9,0,0,0,1.1-.2,2.8-.4,1.9-.2,4.3-.5,6.9-.8,2.6-.3,4.9-.6,6.9-.9,1.8-.2,2.9-.3,2.9-.3Z"/>
      <path class="st4" d="M258.4,325.1c0,.1-5.4,2.5-12.2,5.3-6.8,2.8-12.4,5-12.4,4.9,0-.1,5.4-2.5,12.2-5.3,6.8-2.8,12.4-5,12.4-4.9Z"/>
    </g>
    <g>
      <g>
        <g>
          <path class="st1" d="M510.7,211.7l.5-44.3c.5-11-5.5-20.5-16.5-20.7h-1c-10.3.5-18.5,8.7-18.9,18.9-.4,9.5-.7,20.1-.4,25.2.6,10.6,11.2,11.8,11.2,11.8,0,0,0,6.4,0,9.5l8.5,11.8v.6s16.5-12.9,16.5-12.9Z"/>
          <path class="st0" d="M485.6,202.7s6.7.1,13.6-4.6c0,0-3,8.1-13.6,7.6v-2.9Z"/>
          <path class="st1" d="M510.7,175.3c.2,0,7.2-2.4,7.2,4.8,0,7.2-7.2,5.8-7.2,5.6,0-.2,0-10.4,0-10.4Z"/>
          <path class="st0" d="M512.9,182.9s.1,0,.3.2c.2,0,.6.2.9,0,.8-.3,1.4-1.5,1.4-2.8,0-.7-.1-1.3-.4-1.8-.2-.5-.6-.9-1-1-.4,0-.7.1-.7.4,0,.2,0,.3,0,.4,0,0-.2-.1-.1-.4,0-.1.1-.3.3-.5.2-.1.4-.2.7-.2.6,0,1.1.5,1.3,1.1.3.6.5,1.3.5,2,0,1.5-.8,2.8-1.8,3.1-.5.1-.9,0-1.2-.2-.2-.2-.3-.3-.2-.4Z"/>
        </g>
        <g>
          <path class="st10" d="M460.2,156.2c.1-.4.4-.8.8-1,.8-.5,1.8-.4,2.7-.5,2.3,0,4.6-.7,6.6-1.7-.7-.4-1.4-.8-2-1.3-1.2-1.2-1.9-2.9-1.4-4.5,0-.3.3-.6.6-.7.5-.1.9.3,1.2.7,1.1,1.2,2.1,1.7,3.7,1.5,1-.1,2-.3,2.7-.8,0,0,0,0,0-.1.4-.4.7-.8,1.1-1.1,0,0,0,0,0,0h0c2.7-2.7,5-4.6,7.4-5.6,3.5-1.5,9.4-2.1,13.1-1.2,3.7.9,7,3.9,7.6,7.6,2-1.8,5.1-1.8,7.7-.8h0c2.8.9,4.4,3.9,5.3,6.7,0,.2,0,.3.1.5,1,1.5,2.3,2.8,3.8,3.6.3.2.6.3.6.7,0,.3-.2.6-.5.8-.7.5-1.4.8-2.3,1,.3.7.6,1.3,1,2,.3.5.7,1.2.4,1.7-.2.4-.8.6-1.2.6-.5,0-.9-.3-1.3-.6.3.7.6,1.5,1,2.2-1,.2-2.1.1-3-.2-.6,2.7-1,7.6-1.6,9.4-1.9,0-2.4-.1-3.4.2-1.2.4-.7,2.6-2.4,2-.8-.3-2.1-3.4-2.4-4.3-1.9-5.6-2.6-11.6-2-17.5-1.2-1.2-2.6-2.2-4.1-2.9h.1c-3-.9-6.3-1.9-9.1-.4-2.2,1.1-3.4,3.4-5,5.2-3,3.4-6.5,5.3-11.1,5.6-.4,3.2-.4,8.4-.6,11.4l-2.6-5.9h0c-.2-.3-.4-.7-.6-1h0c-.3-.7-.5-1.2-.9-1.8,0,0,0,0,0,0-1.6,1.4-4-.7-2.7-2.5.2-.3.5-.7.9-.9-.7.7-1.8,1-2.8.8-1-.3-1.7-1.3-1.7-2.3,0-.7.5-1.3,1.2-1.6-1.3.1-2.6-.2-3.8-.8-.7-.4-1.5-1.1-1.2-2Z"/>
          <path class="st3" d="M501.2,148.7s.4.3,1.1,1c.6.7,1.3,1.9,1.7,3.5.2.8.3,1.7.3,2.7,0,1,0,2-.1,3.1,0,1.1-.1,2.3,0,3.5,0,.6.1,1.2.3,1.8.1.6.3,1.3.8,1.8.4.4,1,.6,1.5.5.5,0,1-.4,1.3-.8.7-.8.8-1.8,1-2.7h-.2c.4.8.8,1.6,1.3,2.2.5.6,1.3,1,2.1,1.1.4,0,.8,0,1.1-.2.3-.2.6-.4.7-.7.2-.3.2-.6.2-.9,0-.3-.1-.6-.3-.8h-.1c.8,1,1.7,1.5,2.3,1.8.3.1.5.2.7.3.2,0,.3,0,.3,0,0,0,0,0-.2,0-.2,0-.4-.2-.7-.3-.6-.3-1.4-.8-2.2-1.7h-.1c.4.5.4,1.1,0,1.7-.2.3-.4.5-.7.7-.3.1-.6.2-1,.2-.7,0-1.4-.4-1.9-1-.5-.6-.9-1.4-1.3-2.2l-.2-.3v.4c-.2.9-.4,1.9-1,2.6-.3.3-.7.6-1.2.7-.5,0-1,0-1.3-.4-.4-.4-.6-1.1-.7-1.7-.1-.6-.2-1.2-.3-1.8,0-1.2,0-2.3,0-3.4,0-1.1.1-2.1,0-3.1,0-1-.1-1.9-.3-2.7-.4-1.6-1.1-2.8-1.8-3.5-.7-.7-1.1-.9-1.1-.9Z"/>
          <path class="st3" d="M468.5,159.3s0,0,0,0c0,0,.2.1.3.2.1,0,.3.2.5.3.2.1.4.2.6.3,1,.5,2.6.9,4.5.8,2-.1,4.3-.8,6.4-2.4,2.1-1.5,3.9-3.8,5.4-6.4.8-1.3,1.4-2.6,2-3.8.7-1.2,1.4-2.4,2.3-3.2.9-.9,1.9-1.6,3-1.9.5-.2,1.1-.2,1.6-.2.5,0,1,.1,1.5.3.9.3,1.7.8,2.2,1.3.6.5.9,1.1,1.2,1.5.5,1,.5,1.6.6,1.6,0,0,0,0,0-.1,0,0,0-.2,0-.3,0-.3-.2-.7-.4-1.2-.3-.5-.6-1.1-1.2-1.6-.6-.5-1.3-1.1-2.3-1.4-.5-.2-1-.3-1.5-.3-.5,0-1.1,0-1.7.2-1.1.3-2.2,1-3.1,1.9-.9.9-1.7,2.1-2.4,3.3-.7,1.2-1.3,2.5-2,3.8-1.5,2.6-3.3,4.8-5.3,6.3-2,1.6-4.3,2.3-6.2,2.4-1.9.2-3.5-.3-4.5-.7-1-.4-1.5-.8-1.5-.8Z"/>
          <path class="st3" d="M467.5,154.7s.1.1.4.3c.3.2.6.4,1.1.6.5.2,1.1.4,1.8.6.7.1,1.5.3,2.3.3.8,0,1.6,0,2.3-.2.7-.1,1.3-.3,1.8-.5.5-.2.9-.4,1.2-.5.3-.1.4-.2.4-.2,0,0-.6.3-1.6.6-.5.2-1.1.3-1.8.4-.7.1-1.4.2-2.2.2-.8,0-1.6-.1-2.2-.3-.7-.1-1.3-.3-1.8-.5-1-.4-1.6-.7-1.6-.7Z"/>
        </g>
      </g>
      <path class="st3" d="M559.2,250.7s-10.9-19.6-15.4-27.4c-3.4-5.8-8.3-8.4-10.6-9.3-6.4-3.4-21-7.9-22.1-8.3,0,0,0,0,0,0,0,0-5.1,8.3-14.8,8.1-7.6-.2-10.6-4.7-11.2-5.6,0-.1,0-.2,0-.2l-24.1,7.4c-2.7,1-23.3,26.8-23.3,26.8l1.2,1.2,14.7,15.1,3.8,3.8v10.3c-.1,0-2.4,39.1-2.4,39.1,0,0,.3.3-1.1,3.7-1.4,3.4-1.9,15.9-1.9,15.9.1,0,.2,0,.3,0,2.6.8,5.2,1.5,7.8,1.9.2,0,.4,0,.6.1,7,1.2,14.2,1.4,21.5.8.2,0,.3,0,.5,0,14.4-1.2,30.5-5,45.4-9.5l-1.4-7.2c-.2-3.4-2-6.4-2-6.4l1.3-21.2,3-32.8s0,0,0,0c.3,1.4.6,2.6.8,3.5l29.7-10Z"/>
      <path class="st4" d="M538.4,508.5l-4-84.2-5.5-82.7-2.2-17.3c-14.9,4.5-29.8,8.6-44.2,9.9h-.5c-7.1.6-14.2.5-21-.7-2.6-.5-6.4-1.3-8.9-2.1-.3,2.3-.6,5.5-.7,8.4,0,0,0,0,0,0,0,2,0,4,0,6.1.2,5.5,13.2,159.4,13.2,159.4l5.5.2v-1.7c-.1,0-.2,0-.2,0,0,0,0-.1.1-.2l-.6-16.2h20.9c0,0,0,19,0,19h.7s-1.3-144.1-1.3-144.1l2.1.5s11.8,61.9,12.5,71.9c.7,9,10.1,74.3,10.1,74.3h2.8c0,0,0-1.6,0-1.6-.2,0-.3.1-.3,0,0,0,0-.2.3-.3l-.2-3.5c-.3-.3-.5-.6-.6-.9-.2-.4-.3-.8,0-1.3.1-.3.4-.4.6-.5l-.6-12.4,19.2,1.7s-.3,10.2-.5,18.3h3.4Z"/>
      <g>
        <path class="st12" d="M470.2,508.5c.5,0,1.1.1,1.8.5,1.2.8,1.5,2,1.4,2-.2,0-.7-.8-1.7-1.4-.6-.4-1.1-.6-1.5-.7-.5.2-2,.8-4.1,1.6.4.1.8.4,1.2.9.9,1.1.7,2.3.6,2.2-.2,0-.4-.9-1.1-1.8-.4-.6-1-.9-1.3-1.1-1.2.5-2.5,1-3.8,1.6.3.2.7.6,1,1.2.5,1.1.2,2.1,0,2.1-.2,0-.3-.9-.7-1.8-.3-.6-.6-1.1-.8-1.4-4.4,2-9.2,4.4-11.5,6.4.2-.1.3-.2.3-.2l40.1-1.3v3.4c.1,0,.2-14.6.2-14.6l-20.1-.9v3ZM481.2,508.2c.3-.8,1.4-1.4,2.1-1h-.2c.8.2,1.4,1.1,1.2,1.9-.2.8-1.1,1.4-1.9,1.2-.8-.2-1.5-1.3-1.2-2.1Z"/>
        <path class="st8" d="M482.4,510.2c.8.2,1.7-.4,1.9-1.2.2-.8-.4-1.7-1.2-1.9h.2c-.7-.3-1.9.3-2.1,1.1-.3.8.4,1.9,1.2,2.1Z"/>
        <path class="st4" d="M449.7,519c-.5.3-1.5,1-1.3,2,0-.6.5-1.2,1.3-2Z"/>
        <path class="st4" d="M450,518.9s-.1,0-.3.2c-.8.7-1.3,1.4-1.3,2h41.8c0,0-.1-3.5-.1-3.5l-40.1,1.3Z"/>
        <path class="st2" d="M470.2,508.5c-.4,0-.7,0-.7.2,0,0,.2.2.5.3,0,0,.1,0,.1,0v-.4Z"/>
        <path class="st2" d="M473.3,511.1c.2,0-.1-1.3-1.4-2-.6-.4-1.3-.5-1.8-.5v.4s0,0-.1,0c.4.1.9.3,1.5.7,1,.6,1.5,1.5,1.7,1.4Z"/>
        <path class="st2" d="M465.2,510.6c0,0,0,.2.3.3.2,0,.4-.2.6-.2-.5-.2-.8-.2-.8,0Z"/>
        <path class="st2" d="M466.7,512c.7.8.9,1.8,1.1,1.8.2,0,.3-1.2-.6-2.2-.4-.5-.9-.8-1.2-.9-.2,0-.4.2-.6.2.3.2.8.6,1.3,1.1Z"/>
        <path class="st2" d="M461.1,512.3c0,0,0,.2.1.3.1,0,.3-.1.4-.2-.3-.2-.5-.2-.5-.2Z"/>
        <path class="st2" d="M462.7,515.8c.2,0,.5-1,0-2.1-.3-.6-.7-1-1-1.2-.1,0-.3.1-.4.2.2.3.5.8.8,1.4.4.9.5,1.8.7,1.8Z"/>
        <path class="st12" d="M531.6,508.6c0,.6-.2,1.3-.7,1.7-.7.5-1.7.3-2.1-.4-.2-.3-.3-.8-.2-1.2l-11.5.3.2,5.4c.5-.3,1.7-.7,3.1-.6,2,0,3.5.9,3.4,1,0,.2-1.5-.4-3.4-.4-1.4,0-2.6.2-3.1.3h0s-2.4,10-2.4,10c.1,0,.4-.2.8-.3.6-.1,1.5,0,2.3.4.9.4,1.5,1,1.8,1.6.3.5.4.9.3.9-.1,0-.8-1.3-2.3-2-1.4-.7-2.7-.4-3-.5l-1.1,4.4c.5-.2,1.3-.4,2.4,0,1.5.4,2.3,1.6,2.2,1.6-.1.1-1-.7-2.3-1.1-1-.3-1.9-.2-2.3-.2l-1.4,6c-.4,1.5.6,3,2.2,3.3l20.2-22.7c0-1.8.1-4.5.2-7.5h-3.3ZM520.1,520.8c-2.1-.8-3.9-.6-3.9-.8,0-.1,1.9-.5,4.1.3,2.2.8,3.4,2.4,3.3,2.4-.1.1-1.4-1.2-3.5-1.9Z"/>
        <path class="st3" d="M534.7,518.1s0,0,0,0c0,0,0,.2,0,.2,0,0,0-.1,0-.2Z"/>
        <path class="st4" d="M534.8,517.2v-1.1s0,0,0,0c0,1,0,1.7,0,2,0-.3,0-.6.1-.9Z"/>
        <path class="st4" d="M514.5,538.8c.9.2,1.8-.1,2.4-.7,10.8-10.9,15.4-16.3,17-18.3.4-.5.6-.9.7-1.5-.9,2.2-14,16-17.8,19.7-.6.6-1.5.9-2.3.7Z"/>
        <path class="st4" d="M516.9,538.1c3.8-3.8,16.8-17.6,17.8-19.7,0,0,0-.2,0-.2,0-.3,0-1,0-2l-20.2,22.7c.9.1,1.7-.1,2.3-.7Z"/>
        <path class="st2" d="M528.9,509.9c.4.7,1.4.9,2.1.4.5-.3.7-1.1.7-1.7h-3c0,.5,0,.9.2,1.2Z"/>
        <path class="st2" d="M514.9,524.8s0,0,0,0h0c0,0,0,0,0,0Z"/>
        <path class="st2" d="M517.9,525.3c1.6.7,2.2,2.1,2.3,2,0,0,0-.4-.3-.9-.3-.5-.9-1.2-1.8-1.6-.9-.4-1.7-.5-2.3-.4-.4,0-.7.2-.8.3h0c.3.2,1.6,0,3,.6Z"/>
        <path class="st2" d="M513.6,529.5s.1,0,.3,0v-.3c-.2,0-.3.2-.3.2Z"/>
        <path class="st2" d="M516.1,529.7c1.4.4,2.2,1.2,2.3,1.1.1,0-.6-1.2-2.2-1.6-1-.3-1.9-.1-2.4,0v.3c.4,0,1.2,0,2.2.2Z"/>
        <path class="st2" d="M520.3,520.3c-2.2-.8-4.1-.4-4.1-.3,0,.2,1.8,0,3.9.8,2.1.7,3.4,2,3.5,1.9.1,0-1.1-1.6-3.3-2.4Z"/>
        <path class="st2" d="M517.1,514.6s.1,0,.3,0v-.2c-.2.1-.3.2-.3.2Z"/>
        <path class="st2" d="M523.9,514.8c0-.1-1.4-1-3.4-1-1.5,0-2.6.4-3.1.6v.2c.5,0,1.7-.3,3.1-.3,1.9,0,3.3.6,3.4.4Z"/>
        <path class="st4" d="M516.6,501.7c0,.2,0,.5.1.8,0,0,0,.1.1.2v-1.2c-.1,0-.2.1-.2.2Z"/>
        <path class="st4" d="M469.4,487.4l.6,16.2c.3-.2,1.1-.6,2.1-.5,1.4,0,2.2.8,2.1,1-.1.2-1-.2-2.2-.3-1,0-1.8.1-2.1,0v1.7c0,0,20.2.9,20.2.9v-19.1c0,0-20.8,0-20.8,0Z"/>
        <path class="st4" d="M469.9,503.8s0,0,.1,0v-.3c-.1,0-.2.2-.1.2Z"/>
        <path class="st4" d="M472.1,503.8c1.2,0,2.1.4,2.2.3.1-.1-.8-.9-2.1-1-1,0-1.8.3-2.1.5v.3c.3,0,1.1-.1,2.1,0Z"/>
        <path class="st4" d="M521.1,504.3c1.3-.4,2.2-1.7,2.2-2.9,0-.3,0-.6-.3-.8-.2-.2-.4-.2-.7-.1-.5.2-.8.8-1.1,1.2-.4.6-.6,1.2-.7,1.7,0,.1.2.2.2.3.1.2.2.4.3.5Z"/>
        <path class="st4" d="M520.2,504.4c0,0,0-.2,0-.3,0-.2,0-.4,0-.6-.4-.4-.9-.9-1.5-1.4-.5-.3-1-.7-1.5-.7-.2,0-.3,0-.4,0v1.2c.7,1,2,1.7,3.4,1.7Z"/>
        <path class="st4" d="M520.5,504.4c.1,0,.3,0,.4,0-.1-.2-.3-.3-.4-.6,0,.3-.1.5-.1.7,0,0,.1,0,.2,0Z"/>
        <path class="st4" d="M529.3,507.8h-.1c.5-.5,1.7-.3,2.2.3.1.2.2.4.2.6h3.3c.2-8.2.5-18.4.5-18.4l-19.2-1.7.6,12.4c.2,0,.3,0,.5,0,.8,0,1.3.5,1.7.9.6.5,1,.9,1.4,1.3.1-.5.3-1,.6-1.6.3-.5.6-1.1,1.3-1.5.4-.2.9-.1,1.2.2.3.3.4.8.4,1.2,0,1.7-1.4,3.3-3.2,3.6-.1,0-.2,0-.3,0,0,0,0,.1,0,.1,0,0,0,0,0,0-1.3,0-2.5-.5-3.3-1.4l.2,3.5c.1-.1.3-.3.6-.4.6-.4,1.5-.7,2.6-.8,1.1,0,2,.2,2.6.5.6.3.9.6.9.7,0,.2-1.5-.7-3.5-.6-1.5,0-2.7.7-3.2.9v1.6c0,0,11.6-.3,11.6-.3,0-.4.3-.7.6-.9Z"/>
        <path class="st4" d="M529.2,507.9h.1c-.3.1-.5.5-.6.8h3c0-.3-.1-.5-.2-.7-.5-.6-1.7-.8-2.2-.2Z"/>
        <path class="st4" d="M516.8,507.5s.1,0,.3,0v-.3c-.2.2-.3.3-.3.3Z"/>
        <path class="st4" d="M520.3,506.6c2-.1,3.4.7,3.5.6,0,0-.3-.4-.9-.7-.6-.3-1.6-.5-2.6-.5-1.1,0-2,.4-2.6.8-.2.1-.4.3-.6.4v.3c.5-.2,1.7-.8,3.2-.9Z"/>
        <path class="st4" d="M516.2,501.5c-.2.4,0,.9,0,1.3.2.3.4.6.6.9v-.9c0,0-.1-.1-.2-.2-.1-.3-.2-.6-.1-.8,0,0,.1-.2.2-.2v-.5c-.3,0-.5.2-.6.5Z"/>
        <path class="st4" d="M520.5,503.8c0,0,0-.2,0-.3,0,0-.1-.2-.2-.3,0,.1,0,.2,0,.4,0,0,.2.2.2.3Z"/>
        <path class="st4" d="M521.3,501.7c.3-.5.6-1,1.1-1.2.2-.1.5,0,.7.1.2.2.3.5.3.8,0,1.2-.9,2.4-2.2,2.9.1.2.2.4.1.4,0,0-.1-.1-.3-.4-.1,0-.3,0-.4,0,0,0-.1,0-.2,0,0,.3,0,.5,0,.6.1,0,.2,0,.3,0,1.9-.3,3.2-1.9,3.2-3.6,0-.4-.1-.8-.4-1.2-.3-.3-.9-.4-1.2-.2-.7.4-1,1-1.3,1.5-.3.6-.5,1.1-.6,1.6,0,.1.2.2.2.3.1-.5.4-1.1.7-1.7Z"/>
        <path class="st4" d="M521.1,504.3c0-.1-.2-.3-.3-.5,0-.1-.1-.2-.2-.3,0,.1,0,.2,0,.3.2.2.3.4.4.6,0,0,.1,0,.2,0Z"/>
        <path class="st4" d="M517.2,501.4c.6,0,1.1.4,1.5.7.7.5,1.2.9,1.5,1.4,0-.1,0-.2,0-.4-.3-.4-.8-.9-1.4-1.3-.5-.3-1-.8-1.7-.9-.1,0-.3,0-.5,0v.5c.1,0,.3-.1.4,0Z"/>
        <path class="st4" d="M520.3,505.1s0,0,0-.1c0,0,0,0,0,0,0,0,0,0,0,0Z"/>
        <path class="st4" d="M520.2,504.4c0,0,.1,0,.2,0,0-.2,0-.4.1-.7,0,0-.1-.2-.2-.3,0,.2,0,.4,0,.6,0,.1,0,.2,0,.3Z"/>
        <path class="st4" d="M521.2,504.7s0-.2-.1-.4c0,0-.1,0-.2,0,.2.2.3.4.3.4Z"/>
        <path class="st4" d="M520.2,504.4c0,.3,0,.5,0,.6,0,0,0,0,0,0,0-.1,0-.3,0-.6,0,0-.1,0-.2,0Z"/>
        <path class="st4" d="M520.2,504.4c-1.4,0-2.7-.7-3.3-1.7v.9c.9.9,2,1.4,3.4,1.4,0-.1,0-.3,0-.6Z"/>
      </g>
      <path class="st4" d="M454.6,226.3s0,.5.1,1.5c0,1,.2,2.4.3,4,.2,3.3.6,8,.8,13.1.3,5.1.4,9.8.4,13.1,0,1.7,0,3-.1,4,0,.9-.1,1.5-.2,1.5,0,0,0-.5,0-1.5,0-.9,0-2.3,0-4,0-3.4-.2-8-.5-13.1-.3-5.1-.6-9.7-.7-13.1,0-1.7-.1-3-.1-4,0-.9,0-1.5,0-1.5Z"/>
      <path class="st4" d="M532,230.4s0,.5-.1,1.3c-.1.9-.3,2.1-.5,3.5-.4,3-1,7-1.5,11.6-.5,4.5-.9,8.6-1.1,11.6-.1,1.4-.2,2.6-.3,3.5,0,.8-.1,1.3-.2,1.3,0,0,0-.5,0-1.3,0-.8,0-2,.1-3.5.1-3,.4-7.1.9-11.7.5-4.5,1.1-8.6,1.7-11.6.3-1.5.5-2.7.7-3.5.2-.8.3-1.3.3-1.3Z"/>
    </g>
    <g>
      <g>
        <path class="st4" d="M384.7,319.9s-11.5,17.2-9.7,39c1.8,21.8,10.6,63.5,10.6,63.5,0,0,.3,35.6,4.2,53.9,3.9,18.3,3.2,24.2,3.2,24.2h17.3s1.2-46.7,0-56.6c-1.2-9.8-1.3-13.3.5-21.8l1.6-59.5,1.5-40.9-29.2-1.8Z"/>
        <path class="st4" d="M438.6,321.7s11.9,14.1,11,35.9c-1,21.8-8,63.8-8,63.8,0,0,1.1,35.6-2.1,54-3.2,18.5-3.5,26.9-3.5,26.9l-16.1-2s-3-46.7-2.2-56.5c.8-9.9.8-13.3-1.4-21.7l-3.9-59.4.5-41.4,25.7.3Z"/>
      </g>
      <g>
        <path class="st4" d="M393.4,493.6l1,16.6s-17.4,6.5-17.5,9.6l33.8-.6-.4-26-16.9.3Z"/>
        <path class="st8" d="M404.8,508.7c.7.2,1.1.9,1,1.5-.1.6-.9,1.1-1.5.9-.7-.1-1.2-1-1-1.6.2-.6,1.1-1.1,1.7-.8"/>
        <path class="st3" d="M410.7,519.3v-2.6c-.1,0-32.5,1.6-32.5,1.6,0,0-1.5.7-1.3,1.7l33.8-.6Z"/>
        <path class="st2" d="M393.8,510.1c0,.2.8.2,1.7.7.8.5,1.3,1.1,1.4,1.1.2,0-.1-1-1.1-1.6-1-.6-2-.4-2-.2Z"/>
        <path class="st2" d="M390.3,511.6c0,.2.7.4,1.3,1.1.6.6.8,1.4.9,1.4.2,0,.3-.9-.5-1.7-.7-.8-1.7-.9-1.7-.7Z"/>
        <path class="st2" d="M388.4,515.7c.2,0,.4-.8,0-1.6-.4-.9-1.2-1.2-1.3-1.1,0,.1.4.6.8,1.3.4.7.4,1.4.6,1.4Z"/>
        <path class="st2" d="M394.1,506.3c0,.1.8,0,1.8,0,.9,0,1.7.3,1.8.2,0-.1-.6-.7-1.7-.7-1.1,0-1.9.5-1.8.6Z"/>
      </g>
      <g>
        <path class="st4" d="M435.2,494.6l-1.8,20.1,3.3,16.3c.2,1.2-.6,2.3-1.9,2.4h0c-.7,0-1.4-.2-1.9-.6-3-3.1-14.1-14.8-13.8-16.2.3-1.7.5-21.3.5-21.3l15.6-.6Z"/>
        <path class="st3" d="M434.9,533.4l-15.6-18.2v.9c-.1.7.1,1.5.6,2.1,1.2,1.6,4.8,5.9,13.1,14.7.5.5,1.2.8,1.9.7h0Z"/>
        <g class="st6">
          <path class="st2" d="M424.1,509c.5.4.6,1.2.2,1.7-.4.5-1.2.6-1.7.2-.5-.4-.7-1.3-.3-1.8.4-.5,1.4-.5,1.8,0"/>
        </g>
        <path class="st2" d="M430.7,524.3c.1,0,.7-1,2-1.5,1.3-.5,2.4-.2,2.5-.3,0,0-.2-.2-.7-.3-.5,0-1.2,0-1.9.2-.7.3-1.2.8-1.5,1.1-.3.4-.3.7-.3.7Z"/>
        <path class="st2" d="M432,527.1c0,0,.8-.5,1.9-.8,1.1-.3,2,0,2.1-.1,0,0-.9-.6-2.2-.3-1.3.3-1.9,1.1-1.8,1.2Z"/>
        <path class="st2" d="M428.1,520.7c0,.1,1.2-.8,2.9-1.4,1.7-.5,3.2-.4,3.2-.5,0-.1-1.5-.5-3.3,0-1.8.5-2.8,1.7-2.7,1.8Z"/>
        <path class="st2" d="M428.1,514.6c0,.1,1.2-.3,2.8-.2,1.5,0,2.7.5,2.7.3,0,0-1.1-.8-2.7-.8-1.6,0-2.8.6-2.8.7Z"/>
        <path class="st2" d="M428.5,508.7c0,.1,1.3-.5,2.9-.3,1.6.1,2.7.9,2.7.8,0,0-.2-.3-.6-.6-.5-.3-1.2-.6-2.1-.7-.9,0-1.6,0-2.2.3-.5.2-.8.4-.8.5Z"/>
        <path class="st2" d="M431.4,507.2s0-.3,0-.8c0-.5-.1-1.2-.5-2-.2-.4-.4-.9-1-1.2-.3-.2-.7-.1-1,.1-.3.2-.4.6-.4.9,0,1.3,1,2.6,2.5,2.9,1.5.3,2.9-.5,3.6-1.6.2-.3.3-.6.1-1-.1-.4-.6-.5-.9-.5-.6,0-1,.4-1.4.6-.8.5-1.3,1.1-1.5,1.5-.3.4-.4.7-.4.7,0,0,.6-1,2.1-1.9.4-.2.8-.5,1.3-.5.2,0,.4,0,.5.3,0,.2,0,.4-.1.6-.6.9-1.9,1.5-3.1,1.3-1.3-.2-2.2-1.4-2.2-2.4,0-.2,0-.5.2-.6.1-.1.4-.2.5,0,.4.2.6.6.8,1,.8,1.5.6,2.7.7,2.7Z"/>
      </g>
      <g>
        <g>
          <path class="st4" d="M390.9,191.3s-4.6,17.2-5,29.3v4.1c-.1,0,10,8.4,18.5,8.9l7.1-17.5-20.7-24.8Z"/>
          <g>
            <g>
              <g>
                <path class="st4" d="M435.9,201.8c-1.9-8.4-2.7-18.1-9.7-23.6-5.2-4.1-11.1-5.2-17.6-4.9-3.2.1-6.9,1.6-9.7,3.2-3.9,2.2-5.5,6.6-7.4,10.6-3.7,8.1-3.3,19-.7,22l33.7,17.8c6.7-3.5,11-4.9,12-13.9.5-3.8.2-7.6-.7-11.3Z"/>
                <g>
                  <path class="st1" d="M425.9,184.9l-21.2-6.3c-6.8-1-11.7,7.3-12.4,14.1-.8,7.6-1.4,17-.8,22.7,1.4,11.6,10.1,13.4,10.1,13.4,0,0,0,.2,0,3.6v7c-.1,2.2.3,3,1.6,4.8,3.1,4.1,8.8,4.6,15.6,2.1,3.9-1.4,6.6-4.3,6.9-8.3l3.7-48.9c.1-2.1-1.4-3.9-3.5-4.2Z"/>
                  <path class="st0" d="M401.6,228.9s7.7.8,15.5-3.5c0,0-4.1,7.9-15.6,6.4v-2.9Z"/>
                </g>
              </g>
              <path class="st4" d="M404.6,177.4c0,0,0,.2,0,.2h0c0,0,0-.2,0-.2Z"/>
            </g>
            <path class="st4" d="M419.4,233.5c.3-3-.9-6-.5-9,.4-3.2,2.4-5.9,3.3-9,1.4-5-.5-10.2-1.2-15.4-2.9-.4-5.6-2.1-7.5-4.3-2.3-2.7-3.7-6-5.1-9.3,0,3.2,1.2,6.4,3.1,8.9-1.3.3-2.6-.3-3.6-1.2-1-.9-1.6-2.1-2.1-3.3-1.2-2.9-1.9-6-2-9.2-.4,4.5,0,9.1,1.5,13.4-.8-.2-1.7,0-2.5,0-.8.1-1.8,0-2.4-.5-.4-.4-.5-1-.7-1.5-.8-3.8-.9-7.8-.4-11.7-1,2.1-2,4.2-2.6,6.5-.6,2.3-.7,4.7,0,6.9-.3.4-1,.4-1.4,0-.4-.4-.5-.9-.6-1.4-.3-1.9,0-3.9.4-5.8-1.1,2-1.5,4.4-2.2,6.6-.6,2.2-1.6,4.6-3.6,5.8-.3-3.4-.2-5.7.3-8.8.4-2.4,1.5-4.8,2.6-7,1.2-2.5,2.8-4.9,4.7-6.5,3.4-3,4.8-1.7,7-.6h.3c0,0,0,0,0,0v-.5c5.7-1.3,11.7-1,17.2.8,4.1,1.3,4.4,10.1,5.4,5.9.6-2.5,3.9-.2,3.9-.1,4.8,8.7,9.9,22.4,10.1,44.1h0l-21.3,6Z"/>
          </g>
        </g>
        <path class="st8" d="M430.2,226.6s.4-.7,1.1-2.1c.7-1.4,1.5-3.5,1.9-6.2.4-2.7.4-6-.6-9.5-1-3.5-3.3-6.9-6-10-2.8-3.2-5.8-5.9-8.3-8.5-2.5-2.7-4.6-5.3-6-7.7-1.4-2.4-2.1-4.6-2.4-6.1-.1-.8-.2-1.4-.2-1.8,0-.4,0-.6,0-.6,0,0,.1.9.5,2.4.4,1.5,1.1,3.6,2.5,6,1.4,2.4,3.5,4.9,6,7.6,2.5,2.6,5.5,5.3,8.3,8.5,2.8,3.2,5.1,6.7,6.1,10.2,1.1,3.6,1,7,.5,9.7-.5,2.8-1.4,4.9-2.1,6.2-.4.7-.7,1.2-.9,1.5-.2.3-.4.5-.4.5Z"/>
      </g>
      <g>
        <polygon class="st1" points="393.1 236.5 402.4 235.9 424.8 236.2 443.7 242.6 432.3 259.6 413.9 266.1 399.6 262.7 391.5 252.9 393.1 236.5"/>
        <path class="st10" d="M442.6,288.7l5-44.7-15.6-5.9h-.1c-4.3,12.4-9.5,15.4-13.9,17-4.5,1.7-9.7,3.5-17.7-3.3-7.1-6-3.9-15.6-3.9-15.6,0,0-11-.7-15.6.8-4.5,1.4-6.2,8.2-7.3,11.1v7.8c0,0,6.5,27.5,6.5,27.5h0s.8,24.9.4,27.2c-.4,2.3.4,7.9,4.2,9.3,3.1,1.1,40.1,2.5,53.9,1.7,2.9-.2,8.2-2.7,6.1-8l-2.1-25Z"/>
        <path class="st10" d="M457.6,282.2l-3.5-28c-.9-4.6-2.5-8.6-6.4-10.2h0l-6.7,42.6,1.9,4.8,14.8-9.3Z"/>
        <polygon class="st10" points="373.6 248.2 366.7 275.2 384.9 285.6 377.6 248.2 373.6 248.2"/>
        <path class="st4" d="M374.8,257.3c0,0,.2,1.3.4,3.5.2,2.1.6,5.1,1.3,8.3.7,3.2,1.6,6.1,2.3,8.1.7,2,1.2,3.3,1.1,3.3,0,0-.2-.3-.5-.8-.3-.5-.6-1.4-1-2.4-.8-2-1.7-4.9-2.4-8.1-.7-3.2-1.1-6.2-1.2-8.4,0-1.1,0-2,0-2.6,0-.6,0-.9,0-.9Z"/>
        <path class="st4" d="M446.8,252.6s0,.6-.1,1.5c-.1,1.1-.3,2.5-.6,4.2-.5,3.5-1.1,8.4-1.7,13.7-.6,5.4-1,10.3-1.2,13.8-.1,1.7-.2,3.1-.3,4.2,0,1-.1,1.5-.2,1.5,0,0,0-.6,0-1.5,0-1,0-2.4.2-4.2.2-3.5.5-8.4,1.1-13.8.6-5.4,1.3-10.2,1.8-13.7.3-1.8.5-3.2.7-4.1.2-1,.3-1.5.3-1.5Z"/>
        <path class="st4" d="M428.4,306.9s-.5-.1-1.5-.5c-.9-.3-2.3-.8-3.9-1.5-3.3-1.3-7.8-3.5-12.5-6.2-4.7-2.8-8.7-5.7-11.4-7.9-1.4-1.1-2.5-2.1-3.2-2.7-.7-.7-1.1-1.1-1.1-1.1,0,0,.5.3,1.2.9.8.6,1.9,1.5,3.3,2.6,2.8,2.2,6.8,5,11.5,7.8,4.7,2.8,9.1,4.9,12.3,6.3,1.6.7,3,1.3,3.9,1.7.9.4,1.4.6,1.4.6Z"/>
      </g>
      <g>
        <path class="st1" d="M396,236.3s-3.2-3.6-5.6-4c-2.4-.4-11.1,1.3-13.8,1.8-3.7.7-3.5,3.5-1.1,3.7,2.9.2,6.8-.2,6.8-.2,0,0,2,3.3,5.9,3.3s7.8-4.5,7.8-4.5Z"/>
        <path class="st1" d="M390.4,232.3s-3.1-1.3-6.1-2.1c-3-.8-4.9-.8-5.8.3-.8,1-3.1,6.6-2.5,7.7.7,1.1,8.2,6.5,9.4,6.6,1.2.1,2.1-.4,1.5-1.9-.5-1.5-4.6-5.4-4.6-5.4l.8-3.4,7.2-1.9Z"/>
        <path class="st1" d="M378.1,231.2s-4.2,9.3-4.3,10.1,2.1,2.6,3.8,3.5c1.7.9,7,2.6,7.6,1.8.6-.9.5-1.8.5-1.8l-8-5.1.4-8.6Z"/>
        <path class="st1" d="M374.3,241.5s0,4.3,0,4.9c0,.6.9,2.6,2.1,2.1,1.2-.5,1.1-.5,1.2-1.7.1-1.2,0-3,0-3l-3-2"/>
        <path class="st0" d="M388.8,240.8s-.8.3-2.1,0c-1.3-.3-3-1.2-4.1-3h.3c-.2.2-.4.2-.7.2-2.1.3-4.1.5-5.5.3-1.4-.2-2.2-.6-2.2-.6,0,0,.9.2,2.2.3,1.4.1,3.3-.1,5.4-.4.2,0,.4,0,.7,0h.2s0,.1,0,.1c.9,1.7,2.5,2.6,3.7,2.9,1.2.3,2,.2,2,.3Z"/>
        <path class="st0" d="M388.3,232.2c0,.1-2.8.7-6.3,1.3-3.5.6-6.4.9-6.4.8,0-.1,2.8-.7,6.3-1.3,3.5-.6,6.4-.9,6.4-.8Z"/>
        <path class="st0" d="M376.5,238.2c0,0,.2.7.8,1.5.6.9,1.7,1.9,3,2.8,2.8,1.8,5.5,2.3,5.4,2.4,0,.1-2.8-.1-5.7-2-1.4-.9-2.6-2-3.1-3-.5-1-.5-1.7-.5-1.7Z"/>
        <path class="st0" d="M378,245.3c0,.1-1.3-.3-2.5-1.4-1.2-1.1-1.7-2.4-1.6-2.4.1,0,.8,1,2,2,1.1,1.1,2.3,1.7,2.2,1.8Z"/>
      </g>
    </g>
    <g>
      <g>
        <path class="st13" d="M554.2,227c.7-.4,11.3-4.4,11.3-4.4l22.3-.8,9.9,2.1-9.7,16.1-14.6,1.2-12.7-5.3-5.1-6-1.5-2.9Z"/>
        <g>
          <path class="st12" d="M573.1,151.4c.2-2.5,2.9-4.6,5.4-4.1,1.4-2.8,5.3-4,8.1-2.5,1.3.7,2.3,1.9,3.6,2.7,1.2.7,2.7,1.1,3.9,1.7,1.3.6,2.5,1.7,2.7,3.1.2,1.6-1.1,3-2.6,3.6-1.5.6-3.1.5-4.7.4.7.4.8,1.4.5,2.1-.4.7-1.1,1.2-1.8,1.5-2.5,1-5.5.4-7.4-1.4l-3-2.3c-2.6,0-4.9-2.4-4.7-5Z"/>
          <path class="st10" d="M580.6,161.3c.5.5,1.5.5,2.1,0,.6-.5.7-1.4.5-2.1-.2-.7-.8-1.3-1.4-1.8-.6-.4-1.4-.7-2.1-.9-1.1-.3-2.3-.6-3.5-.7-.4,0-.9,0-1.3.2-.4.2-.7.5-.8.9,0,.6.5,1.1.9,1.4,1.8,1.3,3.7,2.5,5.7,3.5"/>
          <path class="st12" d="M582.3,161c2.8-3.2,9.8-2.7,11.5-.7,2.4-1.3,5.8-.2,7,2.3,2.5.5,5,1.1,7.5,1.6,1.3.3,2.6.6,3.6,1.4,1,.9,1.5,2.5.7,3.5,2.6.7,3.7,4.6,1.8,6.5,1.1,1.1.9,3.2-.4,4.1,2.1,2.5,3.7,5.3,4.9,8.3.5,1.3.9,2.7.4,3.9-.5,1.3-2.1,2.1-3.2,1.4.8,1,.8,2.5.2,3.6,1.3,0,1.7,2,.8,2.9-.9.9-2.3,1-3.5,1-1.3,0-2.6,0-3.7.7,0,.4.2.6.4.8,2.2,1.7,2.8,4.8,1.2,7.1-.1.2-.3.4-.4.6-.7,1-2.5,2-3.7,2.6-2.8,1.5-4.6,1.2-7.7,1.7.9,2.1-4.3,6.6-10.2,2.2-11.8,3.3-20.3,4.5-32.6,4.6-1.7,0-3.9-.2-4.6-1.8-1.4.4-2.9-.3-4-1.3-1.1-1-1.7-2.4-2.4-3.7-3-.8-5.4-3.7-5.5-6.8-2.1-1.6-3.4-4.1-3.6-6.7-2.9-.9-4.6-4.7-3.2-7.4.6-3.6,1.8-7.1,3.6-10.3-2-.4-2.8-3.1-2-5,.8-1.9,2.6-3.1,4.3-4.2-1.5.4-2.8-1.5-2.5-3,.3-1.5,1.7-2.6,3-3.4,1.9-1.2,4-2.1,6.2-2.8.7-2.6,4-5.7,6.5-6.9,9.9-4.8,16.9-6,29.7,3.2"/>
          <path class="st13" d="M584.7,171.9l-17.5-5.8c-6.8-1-11.8,7.2-12.5,14.1-.8,7.6-1.5,17-.9,22.7,1.3,11.6,11.5,14.7,11.5,14.7,0,0-.3,7-.3,7,.9,5.4,6.6,5.5,6.6,5.5,15.7.4,16.7-8.5,16.7-8.5v-43.4c0-2.1-1.5-6-3.6-6.3Z"/>
          <path class="st5" d="M565.3,217.6s6.2-.4,14.1-4.6c0,0-2.7,7.2-14.2,8.1v-3.5Z"/>
          <path class="st4" d="M557.3,179.7c.3.4,1.4,0,2.7,0,1.3,0,2.4.4,2.7,0,.1-.2,0-.5-.5-.9-.5-.4-1.3-.7-2.2-.7-.9,0-1.7.3-2.2.6-.5.3-.6.7-.5.9Z"/>
          <path class="st12" d="M549.5,185.7c.1-1.8.7-3.6,1.9-4.9.7-.7,1.5-1.3,2.1-2.1,1.3-1.7,1.1-4.1,1.7-6.1.7-2.7,2.8-4.9,5.4-5.8,2.2-.8,4.6-.7,6.6-1.7,1.5-.8,2.6-2.2,4.2-2.9,3-1.4,6.5.2,9.3,1.9.6,2.2-.9,4.2-2.2,6.1-1.4,1.9-3.6,3.1-5.9,3.2-1.8.1-3.9-.3-5.1,1-1.3,1.3-.8,3.7-1.9,5.3-1.6,2.2-5.1,1.4-7.4,2.7-1.8,1.1-2.6,3.2-3.5,5.1-.9,1.9-2.5,3.8-4.6,3.7-.3-1.8-.6-3.6-.5-5.4Z"/>
          <path class="st12" d="M576.2,168.1c5.2,0,10.5.9,15.4,2.8,1.5.6,3,1.3,3.8,2.6.7,1.2.8,2.6.8,4,0,4.3-1.8,9.6-3.4,13.5l-5.4,3.2c-4.1-1-2.2-8.1-2-11.7-2.9-1.3-4.9-4.3-4.9-7.5-2.4-1.5-4-4.2-4.2-7Z"/>
          <path class="st13" d="M587.4,192.7c.2-2.5,3.2-2.9,5.3-1.7,1.2.7,2,2.1,1.9,4.7-.4,7-7.3,5.1-7.3,4.9,0-.1,0-5.1.1-7.9Z"/>
          <path class="st5" d="M589.6,198.1s.1,0,.3.2c.2.1.5.2.9,0,.8-.2,1.4-1.4,1.5-2.6,0-.6,0-1.2-.2-1.8-.2-.5-.5-.9-.9-1-.4-.1-.6,0-.7.3-.1.2,0,.3-.1.3,0,0-.1-.1,0-.4,0-.1.1-.3.3-.4.2-.1.4-.2.7-.1.5,0,1,.6,1.2,1.2.2.6.4,1.3.3,2-.1,1.4-.9,2.7-1.9,2.9-.5,0-.9,0-1.1-.2-.2-.2-.2-.3-.2-.4Z"/>
          <path class="st3" d="M590.4,201.1s0,0,0,0c0,0,0,.2,0,.3,0,.2.4.5.8.7.4.2,1,.3,1.7.4.3,0,.7,0,1.1,0,.4,0,.8-.2,1.2-.4h0c.1.9.8,1.9,1.8,2.5,1.1.6,2.5.5,3.7-.3h-.1c.2.3.5.5.9.6.4,0,.8,0,1.1,0,.4-.1.7-.4.9-.7.2-.3.3-.7.4-1.1,0-.8-.2-1.7-.8-2.3-.5-.7-1.2-1.2-1.8-1.8v.2c.6-.3,1-1,1.1-1.6.1-.7,0-1.4-.2-2.1-.3-.7-.7-1.2-1.2-1.7-.5-.5-1.1-1-1.6-1.4v.2c.5-.5.7-1.3.7-2,0-.7-.3-1.5-.8-2.1-.9-1.1-2.2-1.8-3.4-2.4h0c.4-1.4,0-3-1.1-4.1-1-1.1-2.5-1.6-3.9-1.5h.1c.3-1.1-.2-2.4-.9-3.3-.8-.9-1.8-1.5-2.9-1.4h0c0-1.2-.7-2.3-1.6-2.9-.9-.7-2-1-2.9-.8h0c0-.6-.3-1.2-.6-1.7-.3-.5-.7-.9-1.1-1.3-.8-.7-1.7-1-2.4-1,0,0-.2,0-.3,0,0,0-.2,0-.2,0-.2,0-.3,0-.4,0-.3,0-.5.1-.7.2-.2,0-.3.1-.4.2,0,0-.1,0-.1,0,0,0,0,0,.1,0,0,0,.2,0,.4-.1.2,0,.4,0,.7-.2.1,0,.3,0,.4,0,0,0,.2,0,.2,0,0,0,.2,0,.3,0,.7,0,1.6.3,2.3,1,.4.3.7.8,1,1.3.3.5.5,1.1.5,1.7h0c0,0,0,0,0,0,.9-.1,2,.1,2.8.8.8.6,1.5,1.7,1.5,2.9h0c0,0,0,0,0,0,1,0,2.1.5,2.8,1.4.7.8,1.2,2.1.9,3.2h0c0,.1.1.1.1.1,1.3-.2,2.8.3,3.8,1.4,1,1,1.4,2.6,1,4.1h0c0,0,0,.1,0,.1,1.2.6,2.5,1.2,3.3,2.3.4.6.7,1.3.7,2,0,.7-.2,1.4-.6,1.9h0c0,0,0,.2,0,.2,1.1.9,2.3,1.8,2.8,3,.3.6.3,1.3.2,1.9-.1.6-.5,1.2-1,1.5h-.1c0,0,.1.2.1.2.7.5,1.3,1.1,1.8,1.7.5.6.8,1.4.7,2.2,0,.8-.5,1.5-1.1,1.7-.7.3-1.5.1-1.8-.4h0c0,0,0,0,0,0-1.1.8-2.5.9-3.5.3-1-.5-1.6-1.5-1.8-2.4h0c0,0,0,0,0,0-.4.2-.8.3-1.2.4-.4,0-.8,0-1.1,0-.7,0-1.3-.1-1.7-.3-.4-.2-.7-.5-.8-.7-.1-.2-.1-.3-.1-.3Z"/>
          <path class="st3" d="M616.9,193.6s.1-.1.3-.4c.1-.3.3-.8.4-1.4,0-.6,0-1.4-.6-2.2-.5-.7-1.4-1.4-2.5-1.6h0c.2-1,0-2.3-.6-3.4-.3-.6-.8-1.1-1.4-1.4-.6-.4-1.3-.6-1.9-.9-.3-.1-.6-.3-.9-.5-.3-.2-.5-.5-.6-.9-.3-.7-.4-1.5-.8-2.2-.8-1.4-2.5-2.4-4.2-2.1h.1c.2-1.5-.3-3.2-1.5-4.5-1.2-1.3-3-1.9-4.7-1.7h.1c.2-1.9-.9-3.9-2.6-4.8-1.7-.9-3.7-.6-5,.3h.1c-.7-.7-1.6-1.2-2.4-1.5-.9-.3-1.7-.5-2.5-.6-1.6-.2-3,0-4.1.3-1.1.3-1.9.7-2.5,1-.3.2-.4.3-.6.4-.1,0-.2.2-.2.2,0,0,.3-.2.8-.5.5-.3,1.3-.7,2.4-1,1.1-.3,2.5-.4,4.1-.2.8,0,1.6.3,2.5.6.8.3,1.7.8,2.4,1.5h0c0,0,0,0,0,0,1.3-.9,3.2-1.1,4.8-.3,1.6.8,2.7,2.7,2.5,4.7h0c0,.1.1.1.1.1,1.6-.2,3.4.4,4.5,1.7,1.1,1.2,1.6,2.9,1.4,4.4h0c0,.1.1.1.1.1,1.6-.3,3.3.7,4,2,.4.7.5,1.5.8,2.2.2.4.4.7.7.9.3.2.6.4,1,.6.7.3,1.3.5,1.9.9.6.4,1,.9,1.3,1.4.7,1.1.8,2.3.6,3.3h0c0,0,0,0,0,0,1.1.2,2,.8,2.4,1.5.5.7.6,1.5.6,2.1,0,.6-.2,1.1-.3,1.4-.1.3-.2.4-.2.4Z"/>
          <path class="st3" d="M550.3,195.5s.1-.2,0-.6c0-.2-.2-.4-.4-.6-.2-.2-.5-.3-.9-.4-.3-.1-.7-.2-1.1-.5-.4-.2-.6-.6-.8-1.1-.2-.5-.2-1-.2-1.6,0-.6.1-1.2.1-1.8,0-1.3-.5-2.7-.9-4.1-.2-.7-.2-1.5,0-2.3.1-.8.5-1.5,1.3-2,.7-.4,1.6-.6,2.4-.8.4-.1.9-.3,1.2-.6.4-.3.7-.7.9-1.1.4-.9.5-1.8.7-2.7.1-.5.2-.9.5-1.3.2-.4.6-.7,1-.9.6-.2,1.3-.2,1.9-.3.3,0,.7,0,1-.2.3-.1.6-.4.8-.6.4-.6.5-1.2.7-1.8.2-.6.5-1.1.9-1.6.8-.9,1.9-1.4,3-1.4,1.1,0,2.2.4,3,1.1h0c0,0,0,0,0,0,.9-1.9,2.5-3.1,4.1-3.6.8-.2,1.6-.3,2.3-.2.7,0,1.4.3,1.9.5,1.1.5,1.7,1.3,2,1.9.2.3.3.5.3.7,0,0,0,.1,0,.2,0,0,0,0,0,0,0,0,0,0,0,0,0,0,0-.1,0-.2,0-.2-.2-.4-.3-.7-.3-.6-.9-1.4-2-1.9-.5-.3-1.2-.5-1.9-.6-.7,0-1.6,0-2.4.2-1.6.5-3.4,1.7-4.3,3.6h.1c-.8-.8-1.9-1.2-3.1-1.2-1.2,0-2.4.6-3.2,1.5-.4.5-.7,1-.9,1.6-.2.6-.3,1.2-.7,1.7-.3.5-1,.8-1.6.8-.6,0-1.3,0-2,.3-.5.2-.9.6-1.1,1-.3.4-.4.9-.5,1.4-.2.9-.3,1.9-.7,2.7-.2.4-.5.8-.8,1-.4.3-.8.4-1.2.6-.8.3-1.7.4-2.5.9-.4.2-.7.5-.9.9-.2.4-.4.8-.4,1.2-.1.8,0,1.6.1,2.4.4,1.5.9,2.8.9,4.1,0,.6,0,1.2,0,1.8,0,.6,0,1.1.2,1.6.2.5.5.9.8,1.2.4.3.8.3,1.1.4.3.1.6.2.8.4.2.2.3.4.4.5.1.4,0,.6,0,.6Z"/>
          <path class="st3" d="M536.8,184.7s0,0,0-.1c0,0,.1-.2.2-.4.2-.4.4-.9.7-1.5.3-.7.7-1.5,1.2-2.4.5-.9,1.2-1.9,2.3-2.5.6-.3,1.2-.5,1.9-.8.3-.1.7-.3,1-.6.3-.2.5-.5.7-.9.3-.7.3-1.5.6-2.3.1-.4.3-.7.7-1,.3-.2.7-.4,1.1-.5.4-.1.8-.3,1.2-.5.4-.2.7-.6,1-1,.4-.8.4-1.8.6-2.7,0-.5.2-.9.5-1.3.2-.4.7-.6,1.1-.7.9-.2,1.9.1,2.9,0,.5,0,1-.3,1.3-.7.4-.4.6-.8.9-1.2.2-.4.5-.8.8-1.2.3-.4.6-.7,1-.9.8-.4,1.8-.2,2.6,0,.9.2,1.8.4,2.6.2.9-.2,1.6-.6,2.3-1,.7-.4,1.3-.9,2-1.1,1.4-.5,2.9-.4,4.1-.1,1.3.3,2.3.9,3.1,1.6.8.7,1.3,1.4,1.7,2,.4.6.6,1.1.7,1.5,0,.2.1.3.2.4,0,0,0,.1,0,.1,0,0,0,0,0-.1,0-.1,0-.2-.1-.4-.1-.4-.3-.9-.7-1.5-.4-.6-.9-1.4-1.7-2-.8-.7-1.8-1.3-3.1-1.6-1.3-.3-2.8-.4-4.2.1-.7.3-1.4.7-2.1,1.1-.7.4-1.4.9-2.2,1-.8.2-1.7,0-2.6-.2-.4,0-.9-.2-1.4-.2-.5,0-1,0-1.4.2-.4.2-.8.6-1.1.9-.3.4-.5.8-.8,1.2-.2.4-.5.8-.8,1.2-.3.3-.8.6-1.2.7-.9.2-1.9-.2-2.9,0-.5.1-1,.4-1.2.8-.3.4-.4.9-.5,1.4-.2.9-.2,1.9-.6,2.6-.2.4-.5.7-.9.9-.4.2-.8.3-1.2.5-.4.1-.8.3-1.2.6-.4.3-.6.6-.7,1-.3.8-.3,1.6-.6,2.3-.3.7-.9,1.1-1.6,1.4-.6.3-1.3.5-1.9.8-1.2.6-1.9,1.7-2.4,2.6-.5.9-.8,1.7-1.1,2.4-.3.7-.5,1.2-.7,1.5,0,.2-.1.3-.2.4,0,0,0,.1,0,.1Z"/>
          <path class="st3" d="M544.2,177.4s0,0-.1,0c0,0-.2,0-.4,0-.3.1-.6.6-.7,1.2,0,.3,0,.7.1,1,0,.4.2.8.2,1.2,0,.4-.2.9-.5,1.3-.3.4-.6.8-.9,1.3-.3.5-.4,1.2-.2,1.8.2.6.7,1.1.9,1.7.2.6,0,1.3-.2,1.9-.3.6-.7,1.3-.9,2-.1.4-.2.7-.2,1.1,0,.4,0,.8.3,1.2.3.7.9,1.3,1.3,2,.5.6.8,1.4.7,2.2,0,.8-.5,1.5-.8,2.3-.2.4-.3.8-.3,1.3,0,.4.1.9.3,1.3.4.8,1,1.4,1.5,2,.5.6,1,1.2,1.2,2,.2.7.4,1.5.7,2.2.2.3.4.7.7.9.3.2.7.4,1,.5.3.1.7.2,1,.3.3.1.6.3.8.5.5.4.8,1,1.1,1.5.3.5.6,1,.9,1.5.7.9,1.6,1.5,2.4,1.8.9.3,1.7.3,2.3.2.6,0,1.1-.3,1.4-.4.3-.1.4-.3.4-.3,0,0-.6.4-1.8.6-.6,0-1.4,0-2.2-.2-.8-.3-1.7-.9-2.3-1.8-.3-.5-.6-1-.9-1.5-.3-.5-.7-1.1-1.2-1.5-.2-.2-.5-.4-.8-.6-.3-.2-.7-.2-1-.4-.3-.1-.7-.2-.9-.4-.3-.2-.5-.5-.6-.8-.3-.6-.5-1.4-.7-2.1-.2-.8-.7-1.4-1.3-2-.5-.6-1.1-1.2-1.5-1.9-.2-.4-.3-.8-.3-1.2,0-.4.1-.8.2-1.2.3-.8.8-1.5.9-2.4,0-.4,0-.9-.2-1.3-.2-.4-.4-.8-.6-1.1-.5-.7-1-1.3-1.3-2-.2-.3-.2-.7-.2-1.1,0-.4,0-.7.2-1.1.3-.7.6-1.3.9-2,.3-.6.4-1.4.2-2-.2-.6-.7-1.1-.9-1.7-.2-.6-.1-1.1.2-1.6.3-.5.6-.9.9-1.3.3-.4.5-.9.5-1.4,0-.5-.1-.9-.2-1.2,0-.4-.2-.7-.2-1,0-.6.4-1,.6-1.2.3-.2.5,0,.5,0Z"/>
          <path class="st8" d="M594.5,199.9s.4.1,1,.6c.6.5,1.4,1.4,1.7,2.8.1.7.2,1.5,0,2.3-.2.8-.6,1.6-1.3,2.3-.6.7-1.5,1.3-2.4,1.6-1,.3-2.1.4-3.1,0-1-.3-2-.9-2.7-1.6-.7-.8-1.1-1.7-1.3-2.6-.3-1.9.4-3.6,1.4-4.6.5-.5,1.1-.8,1.6-1,.5-.2,1-.3,1.4-.4.4,0,.7,0,.9,0,.2,0,.3,0,.3,0,0,0-.4-.1-1.2,0-.4,0-.8.2-1.3.4-.5.2-1,.5-1.5,1-.9,1-1.6,2.6-1.3,4.4.2.9.6,1.8,1.2,2.5.7.7,1.5,1.3,2.5,1.5,1,.3,2,.3,3,0,.9-.3,1.7-.9,2.3-1.5.6-.7,1-1.4,1.2-2.2.2-.8.2-1.5,0-2.2-.2-1.3-1-2.3-1.6-2.7-.6-.5-1-.7-1-.7Z"/>
          <path class="st4" d="M537.5,156c0,0,.6-.6,1.9-1.1.7-.2,1.5-.5,2.5-.4,1,0,2.1.3,3.2.9h.2c0,0,0,0,0,0,.7-1.2,1.9-2.1,3.5-2.6,1.5-.4,3.4-.3,4.9.8h.2c0,.1.1,0,.1,0,1.3-1.8,3.5-3.2,6-3.6,1.9-.3,3.8,0,5.4.8,1.6.8,2.9,2,3.8,3.3h0c0,0,.1.1.1.1,2.1,0,4.1.6,5.6,1.4,1.6.7,2.8,1.7,3.7,2.6,1.8,1.8,2.5,3.1,2.6,3.1,0,0,0,0-.1-.2,0-.2-.2-.4-.4-.7-.4-.6-1-1.4-1.9-2.3-.9-.9-2.2-1.9-3.8-2.7-1.6-.8-3.6-1.4-5.8-1.5h.2c-.9-1.3-2.2-2.6-3.9-3.4-1.7-.8-3.7-1.2-5.7-.9-2.6.4-4.9,1.9-6.2,3.8h.3c-1.6-1.2-3.6-1.3-5.3-.9-1.7.5-3,1.5-3.7,2.8h.2c-1.1-.7-2.3-1-3.4-1-1,0-1.9.3-2.6.5-.7.3-1.1.6-1.4.9-.3.3-.4.4-.4.4Z"/>
          <path class="st4" d="M584.7,153.5s.6.3,1.7.4c1.1,0,3-.2,4.6-1.6.8-.7,1.4-1.8,1.7-3,.3-1.2.2-2.7-.4-4-.6-1.3-1.7-2.5-3.2-3.1-1.5-.6-3.2-.7-4.8,0h.3c-.6-.7-1.6-1.2-2.6-1.4-.9-.2-1.7,0-2.5.2-.8.3-1.5.9-1.9,1.6-.9,1.4-1.1,3.1-.4,4.5l.3-.3c-1.1-.7-2.5-.6-3.6,0-1.1.5-1.8,1.5-2.1,2.5-.6,2.1.3,4,1.4,5,1.1,1.1,2.3,1.4,3.1,1.6.4,0,.7.1.9.1.2,0,.3,0,.3,0,0,0-.4,0-1.2-.3-.8-.2-1.9-.6-2.9-1.6-1-1-1.8-2.8-1.2-4.7.3-.9,1-1.8,1.9-2.2,1-.5,2.2-.5,3.2,0l.6.4-.3-.7c-.6-1.2-.4-2.8.4-4.1.4-.6,1-1.1,1.7-1.4.7-.3,1.5-.3,2.3-.2.9.2,1.8.7,2.3,1.3h.1c0,.1.2,0,.2,0,1.4-.6,3.1-.5,4.4,0,1.4.5,2.4,1.6,3,2.8.6,1.2.6,2.6.4,3.7-.2,1.2-.8,2.2-1.6,2.9-1.5,1.4-3.3,1.7-4.4,1.7-1.1,0-1.7-.3-1.7-.2Z"/>
          <path class="st4" d="M617.8,171.6s0,0,.1-.3c0-.2.2-.4.3-.8.2-.7.3-1.8,0-3.2-.3-1.3-1-3-2.4-4.2-1.4-1.2-3.6-2.1-5.9-1.8h.2c-.9-1.7-2.6-3.4-4.7-4.3-1.6-.7-3.3-.8-4.9-.6-1.6.3-3,.9-4.1,1.8h.2c-1.7-.9-3.4-1.2-5-1.2-1.5,0-2.9.4-3.9.8-1,.4-1.8.9-2.2,1.3-.5.4-.7.6-.7.6,0,0,1-.9,3-1.7,1-.4,2.3-.7,3.8-.7,1.5,0,3.2.3,4.7,1.2h.1c0,0,.1,0,.1,0,1.1-.8,2.4-1.4,3.9-1.7,1.5-.2,3.1,0,4.6.5,2,.9,3.6,2.4,4.5,4.2h0c0,.1.2.1.2.1,2.1-.3,4.2.5,5.6,1.6,1.4,1.2,2.1,2.7,2.4,4,.3,1.3.2,2.4,0,3.1-.1.7-.3,1.1-.3,1.1Z"/>
        </g>
      </g>
      <g>
        <path class="st4" d="M544.6,308.8c-.4.6-9.6,32-8.2,42.2,1.4,10.2,8.2,40.4,8.2,40.4,0,0,4.2,17.2,3.4,24-.8,6.8-.5,29.6,1.8,43.2,2.6,15.7,5.4,44,5.4,44l20.3-1.6-.9-98.2,5-38.6,2.8-37.8-37.8-17.6Z"/>
        <g>
          <path class="st4" d="M602.8,489.1l-2,22.2,3.7,18c.3,1.3-.7,2.5-2,2.7h0c-.8,0-1.5-.2-2.1-.7-3.3-3.5-15.5-16.3-15.3-17.9.3-1.9.5-23.5.5-23.5l17.2-.7Z"/>
          <path class="st3" d="M602.4,531.9l-17.2-20.1v.9c-.1.8.1,1.6.6,2.3,1.4,1.7,5.2,6.5,14.5,16.2.5.6,1.3.8,2.1.7h0Z"/>
          <g class="st6">
            <path class="st2" d="M590.5,504.9c.6.4.7,1.3.3,1.8-.4.5-1.3.7-1.9.3-.6-.4-.8-1.4-.3-1.9.5-.5,1.6-.6,2,0"/>
          </g>
          <path class="st2" d="M597.8,521.9c.1,0,.7-1.1,2.2-1.6,1.4-.6,2.7-.2,2.7-.3,0,0-.3-.2-.8-.4-.5-.1-1.3,0-2.1.2-.8.3-1.4.8-1.7,1.3-.3.4-.4.8-.3.8Z"/>
          <path class="st2" d="M599.2,525c.1.1.9-.6,2.1-.8,1.2-.3,2.2,0,2.3-.1,0-.1-1-.6-2.4-.3-1.4.3-2.1,1.2-2,1.3Z"/>
          <path class="st2" d="M594.9,517.9c.1.1,1.3-.9,3.2-1.5,1.9-.6,3.5-.4,3.5-.6,0-.1-1.7-.5-3.7,0-2,.6-3.1,1.9-3,2Z"/>
          <path class="st2" d="M595,511.1c0,.1,1.4-.3,3-.3,1.7,0,3,.5,3,.4,0-.1-1.2-.8-3-.9-1.8,0-3.1.6-3.1.7Z"/>
          <path class="st2" d="M595.4,504.6c0,.1,1.4-.5,3.2-.3,1.8.1,2.9,1,3,.9,0,0-.2-.3-.7-.7-.5-.3-1.3-.7-2.3-.7-.9,0-1.8,0-2.4.3-.6.2-.9.5-.8.5Z"/>
          <path class="st2" d="M598.6,503s.1-.3,0-.8c0-.5-.1-1.3-.6-2.2-.2-.4-.4-1-1.1-1.3-.3-.2-.8-.1-1.1.1-.3.3-.4.6-.4,1,0,1.4,1.1,2.9,2.7,3.2,1.7.3,3.2-.5,4-1.7.2-.3.3-.7.1-1.1-.2-.4-.6-.6-1-.5-.7,0-1.2.4-1.6.7-.8.6-1.4,1.2-1.7,1.6-.3.4-.4.7-.4.7,0,0,.7-1.1,2.3-2.1.4-.2.9-.5,1.4-.5.2,0,.4,0,.5.3,0,.2,0,.5-.1.7-.6,1-2.1,1.7-3.5,1.4-1.4-.2-2.4-1.5-2.4-2.6,0-.3.1-.5.3-.7.2-.2.4-.2.6,0,.4.2.7.7.9,1.1.9,1.7.7,2.9.8,2.9Z"/>
        </g>
        <path class="st4" d="M614.3,310.5c.4.6,9.6,32,8.2,42.2s-8.2,40.4-8.2,40.4c0,0-4.2,17.2-3.4,24,.8,6.8-.6,29.4-1.8,43.2-1.4,15.5-4.8,42.4-4.8,42.4l-21.1-1.4,1-96.8-5-38.6-2.8-37.8,37.8-17.6Z"/>
        <g>
          <path class="st4" d="M556.2,489.8l1.1,18.4s-19.2,7.2-19.3,10.6l37.3-.7-.4-28.7-18.6.4Z"/>
          <path class="st8" d="M568.7,506.4c.7.2,1.2.9,1.1,1.6-.2.7-1,1.2-1.7,1-.7-.2-1.4-1.1-1.1-1.7.2-.7,1.2-1.2,1.9-.9"/>
          <path class="st3" d="M575.2,518.1l-.2-2.9-35.7,1.7s-1.6.7-1.4,1.8l37.3-.7Z"/>
          <path class="st2" d="M556.6,508c0,.2.9.2,1.8.8.9.5,1.4,1.3,1.6,1.2.2,0-.1-1.1-1.2-1.7-1.1-.6-2.2-.4-2.2-.3Z"/>
          <path class="st2" d="M552.7,509.6c0,.2.8.5,1.4,1.2.7.7.8,1.5,1,1.5.2,0,.3-1-.5-1.9-.8-.9-1.9-.9-1.9-.8Z"/>
          <path class="st2" d="M550.6,514.1c.2,0,.4-.8,0-1.8-.5-.9-1.3-1.3-1.4-1.2-.1.1.5.6.9,1.4.4.8.5,1.5.7,1.5Z"/>
          <path class="st2" d="M556.8,503.8c0,.2.9,0,1.9,0,1,0,1.8.3,1.9.2.1-.1-.7-.8-1.9-.8-1.2,0-2.1.5-2,.7Z"/>
        </g>
      </g>
      <g>
        <g>
          <path class="st13" d="M620.6,330.6c0,.3-.3,2.1-2.1,4-1.8,1.9-2.8,5.5-2.8,5.5,0,0-1.7,7.7-2.1,10.3-.4,2.5-.5,4.8,1.5,4.4,2-.4,2.7-1.9,3.2-6.5l1.2-2.4,1,1.9v7.4s-5.2,4.7-4.9,6.1c.3,1.4,1.3,1.2,1.3,1.2l.8.8,7.9-5.3,3.1-9.8-.5-12.7.3-9.9-8.2-1.3.3,6.1Z"/>
          <path class="st13" d="M605.3,226.1s12.8,5.9,14.4,14.6c1.6,8.7,3.5,35,4,38.7.5,3.6,3.6,9.5,4.2,20.3.6,10.9.6,27.7.6,27.7l-8,2.3s-6.5-15.9-8.1-27.7c-1.6-11.9-4.6-17-3.9-21.8.7-4.8-1.9-17.1-1.9-17.1l-1.3-37Z"/>
        </g>
        <path class="st10" d="M605.3,251.3c.4.8,0,17.1,1.3,17.5,1.2.5,17.6-.6,17.6-.6,0,0-2-25-4.8-30.1s-9.7-11.2-11.1-11.2c-1.4,0-5.6,21-5.6,21l2.6,3.3Z"/>
        <g>
          <path class="st10" d="M556.3,225.7c-1,.8-16.1,7.4-16.1,7.4l5.4,37.4,2.5,15.4-7.9,32.5s17.2,16.2,44.8,14c27.6-2.2,33.8-11.8,33.8-11.8l-11.8-47.6s-1.2-14.7-1.2-20,2.6-26,2.6-26l-12.8-3.8s-2.4,9.6-19,9.6-20.2-7.1-20.2-7.1Z"/>
          <path class="st4" d="M604,248.3s.2.3.5.9c.3.6.7,1.4,1.1,2.5.9,2.2,1.7,5.3,2,8.8.3,3.5,0,6.8-.6,9-.2,1.1-.5,2-.7,2.7-.2.6-.3.9-.4.9,0,0,.3-1.4.7-3.7.4-2.3.7-5.4.4-8.9-.3-3.5-1.1-6.6-1.9-8.7-.8-2.2-1.4-3.5-1.3-3.5Z"/>
        </g>
        <g>
          <path class="st1" d="M598.2,224.2s3.2-3.6,5.6-4c2.4-.4,11.1,1.3,13.8,1.8,3.7.7,3.5,3.5,1.1,3.7-2.9.2-6.8-.2-6.8-.2,0,0-2,3.3-5.9,3.3-3.9,0-7.8-4.5-7.8-4.5Z"/>
          <path class="st1" d="M603.8,220.1s3.1-1.3,6.1-2.1c3-.8,4.9-.8,5.8.3.8,1,3.1,6.6,2.5,7.7-.7,1.1-8.2,6.5-9.4,6.6-1.2.1-2.1-.4-1.5-1.9.5-1.5,4.6-5.4,4.6-5.4l-.8-3.4-7.2-1.9Z"/>
          <path class="st1" d="M616.1,219s4.2,9.3,4.3,10.1c.1.8-2.1,2.6-3.8,3.5s-7,2.6-7.6,1.8c-.6-.9-.5-1.8-.5-1.8l8-5.1-.4-8.6Z"/>
          <path class="st1" d="M619.9,229.3s0,4.3,0,4.9c0,.6-.9,2.6-2.1,2.1-1.2-.5-1.1-.5-1.2-1.7-.1-1.2,0-3,0-3l3-2"/>
          <path class="st0" d="M605.4,228.6c0,0,.8,0,2-.3,1.2-.3,2.8-1.2,3.7-2.9v-.2c0,0,.3,0,.3,0,.2,0,.4,0,.7,0,2.1.3,4,.5,5.4.4,1.4,0,2.2-.4,2.2-.3,0,0-.8.5-2.2.6-1.4.2-3.4,0-5.5-.3-.2,0-.4,0-.7,0h.3c-1,1.7-2.8,2.6-4.1,2.9-1.3.3-2.1,0-2.1,0Z"/>
          <path class="st0" d="M605.8,220c0-.1,2.9.2,6.4.8,3.5.6,6.4,1.2,6.3,1.3,0,.1-2.9-.2-6.4-.8-3.5-.6-6.4-1.2-6.3-1.3Z"/>
          <path class="st0" d="M617.7,226s0,.7-.5,1.7c-.5,1-1.7,2.1-3.1,3-2.9,1.8-5.7,2.1-5.7,2,0-.1,2.7-.6,5.4-2.4,1.4-.9,2.5-1.9,3-2.8.6-.9.7-1.6.8-1.5Z"/>
          <path class="st0" d="M616.2,233.1c0-.1,1.1-.8,2.2-1.8,1.1-1.1,1.8-2.1,2-2,.1,0-.4,1.3-1.6,2.4-1.2,1.1-2.5,1.6-2.5,1.4Z"/>
        </g>
        <path class="st10" d="M528.3,262.4c0-.8,4.6-24.4,9.8-27.8l2.4-1.8,5.4,32.4v2.2l-17.6-5Z"/>
        <path class="st4" d="M545.9,271.4c0,0-.4-1.1-.9-2.9-.5-1.8-1-4.4-1.5-7.2-.5-2.8-.8-5.4-.9-7.3-.2-1.9-.2-3-.1-3.1,0,0,.2,1.1.5,3,.3,1.9.6,4.4,1.1,7.3.5,2.8,1,5.4,1.3,7.2.4,1.8.6,3,.5,3Z"/>
      </g>
    </g>
  </g>
</svg>